StickSans_Regular#1.ufo
<glyph name="numbersign" format="2">
  <advance width="699"/>
  <unicode hex="0023"/>
  <outline>
    <contour>
      <point x="128" y="0" type="line"/>
      <point x="196" y="0" type="line"/>
      <point x="239" y="209" type="line"/>
      <point x="396" y="209" type="line"/>
      <point x="351" y="0" type="line"/>
      <point x="418" y="0" type="line"/>
      <point x="463" y="209" type="line"/>
      <point x="605" y="209" type="line"/>
      <point x="605" y="270" type="line"/>
      <point x="475" y="270" type="line"/>
      <point x="512" y="439" type="line"/>
      <point x="646" y="439" type="line"/>
      <point x="646" y="500" type="line"/>
      <point x="525" y="500" type="line"/>
      <point x="568" y="697" type="line"/>
      <point x="500" y="697" type="line"/>
      <point x="458" y="500" type="line"/>
      <point x="302" y="500" type="line"/>
      <point x="345" y="697" type="line"/>
      <point x="277" y="697" type="line"/>
      <point x="234" y="503" type="line"/>
      <point x="94" y="503" type="line"/>
      <point x="94" y="439" type="line"/>
      <point x="221" y="439" type="line"/>
      <point x="186" y="270" type="line"/>
      <point x="53" y="270" type="line"/>
      <point x="53" y="209" type="line"/>
      <point x="173" y="209" type="line"/>
    </contour>
    <contour>
      <point x="254" y="270" type="line"/>
      <point x="288" y="439" type="line"/>
      <point x="444" y="439" type="line"/>
      <point x="410" y="270" type="line"/>
    </contour>
  </outline>
</glyph>
<glyph name="dollar" format="2">
  <advance width="560"/>
  <unicode hex="0024"/>
  <outline>
    <contour>
      <point x="253" y="-112" type="line"/>
      <point x="313" y="-112" type="line"/>
      <point x="313" y="0" type="line"/>
      <point x="253" y="0" type="line"/>
    </contour>
    <contour>
      <point x="253" y="697" type="line"/>
      <point x="313" y="697" type="line"/>
      <point x="313" y="808" type="line"/>
      <point x="253" y="808" type="line"/>
    </contour>
    <component base="S"/>
  </outline>
</glyph>
<glyph name="percent" format="2">
  <advance width="747"/>
  <unicode hex="0025"/>
  <outline>
    <contour>
      <point x="116" y="0" type="line"/>
      <point x="178" y="0" type="line"/>
      <point x="627" y="697" type="line"/>
      <point x="565" y="697" type="line"/>
    </contour>
    <contour>
      <point x="543" y="-8" type="curve" smooth="yes"/>
      <point x="629" y="-8"/>
      <point x="696" y="65"/>
      <point x="696" y="153" type="curve" smooth="yes"/>
      <point x="696" y="242"/>
      <point x="628" y="313"/>
      <point x="542" y="313" type="curve" smooth="yes"/>
      <point x="457" y="313"/>
      <point x="389" y="246"/>
      <point x="389" y="153" type="curve" smooth="yes"/>
      <point x="389" y="58"/>
      <point x="458" y="-8"/>
    </contour>
    <contour>
      <point x="543" y="50" type="curve" smooth="yes"/>
      <point x="492" y="50"/>
      <point x="447" y="90"/>
      <point x="447" y="153" type="curve" smooth="yes"/>
      <point x="447" y="214"/>
      <point x="490" y="255"/>
      <point x="542" y="255" type="curve" smooth="yes"/>
      <point x="595" y="255"/>
      <point x="638" y="212"/>
      <point x="638" y="153" type="curve" smooth="yes"/>
      <point x="638" y="95"/>
      <point x="596" y="50"/>
    </contour>
    <contour>
      <point x="206" y="385" type="curve" smooth="yes"/>
      <point x="291" y="385"/>
      <point x="358" y="457"/>
      <point x="358" y="544" type="curve" smooth="yes"/>
      <point x="358" y="634"/>
      <point x="290" y="705"/>
      <point x="204" y="705" type="curve" smooth="yes"/>
      <point x="120" y="705"/>
      <point x="51" y="639"/>
      <point x="51" y="544" type="curve" smooth="yes"/>
      <point x="51" y="452"/>
      <point x="120" y="385"/>
    </contour>
    <contour>
      <point x="206" y="443" type="curve" smooth="yes"/>
      <point x="152" y="443"/>
      <point x="109" y="483"/>
      <point x="109" y="544" type="curve" smooth="yes"/>
      <point x="109" y="607"/>
      <point x="152" y="647"/>
      <point x="204" y="647" type="curve" smooth="yes"/>
      <point x="256" y="647"/>
      <point x="299" y="605"/>
      <point x="299" y="544" type="curve" smooth="yes"/>
      <point x="299" y="488"/>
      <point x="258" y="443"/>
    </contour>
  </outline>
</glyph>
<glyph name="quotesingle" format="2">
  <advance width="232"/>
  <unicode hex="0027"/>
  <outline>
    <contour>
      <point x="80" y="414" type="line"/>
      <point x="152" y="414" type="line"/>
      <point x="152" y="697" type="line"/>
      <point x="80" y="697" type="line"/>
    </contour>
  </outline>
</glyph>
<glyph name="asterisk" format="2">
  <advance width="398"/>
  <unicode hex="002A"/>
  <outline>
    <contour>
      <point x="126" y="395" type="line"/>
      <point x="199" y="511" type="line"/>
      <point x="272" y="395" type="line"/>
      <point x="313" y="426" type="line"/>
      <point x="226" y="530" type="line"/>
      <point x="357" y="564" type="line"/>
      <point x="342" y="614" type="line"/>
      <point x="216" y="562" type="line"/>
      <point x="225" y="697" type="line"/>
      <point x="173" y="697" type="line"/>
      <point x="183" y="562" type="line"/>
      <point x="57" y="614" type="line"/>
      <point x="41" y="564" type="line"/>
      <point x="173" y="530" type="line"/>
      <point x="86" y="426" type="line"/>
    </contour>
  </outline>
</glyph>
<glyph name="comma" format="2">
  <advance width="240"/>
  <unicode hex="002C"/>
  <outline>
    <contour>
      <point x="24" y="-154" type="line"/>
      <point x="81" y="-154" type="line"/>
      <point x="211" y="147" type="line"/>
      <point x="117" y="147" type="line"/>
    </contour>
  </outline>
</glyph>
<glyph name="three" format="2">
  <advance width="560"/>
  <unicode hex="0033"/>
  <outline>
    <contour>
      <point x="275" y="-8" type="curve" smooth="yes"/>
      <point x="422" y="-8"/>
      <point x="523" y="79"/>
      <point x="523" y="205" type="curve" smooth="yes"/>
      <point x="523" y="307"/>
      <point x="447" y="358"/>
      <point x="367" y="376" type="curve"/>
      <point x="432" y="397"/>
      <point x="485" y="443"/>
      <point x="485" y="522" type="curve" smooth="yes"/>
      <point x="485" y="629"/>
      <point x="398" y="705"/>
      <point x="277" y="705" type="curve" smooth="yes"/>
      <point x="149" y="705"/>
      <point x="58" y="624"/>
      <point x="58" y="508" type="curve"/>
      <point x="141" y="503" type="line"/>
      <point x="142" y="574"/>
      <point x="191" y="624"/>
      <point x="274" y="624" type="curve" smooth="yes"/>
      <point x="349" y="624"/>
      <point x="400" y="580"/>
      <point x="400" y="514" type="curve" smooth="yes"/>
      <point x="400" y="426"/>
      <point x="319" y="399"/>
      <point x="236" y="400" type="curve"/>
      <point x="236" y="333" type="line"/>
      <point x="348" y="333"/>
      <point x="439" y="304"/>
      <point x="439" y="206" type="curve" smooth="yes"/>
      <point x="439" y="125"/>
      <point x="377" y="74"/>
      <point x="278" y="74" type="curve" smooth="yes"/>
      <point x="176" y="74"/>
      <point x="110" y="129"/>
      <point x="110" y="217" type="curve"/>
      <point x="26" y="212" type="line"/>
      <point x="26" y="80"/>
      <point x="125" y="-8"/>
    </contour>
  </outline>
</glyph>
<glyph name="four" format="2">
  <advance width="560"/>
  <unicode hex="0034"/>
  <outline>
    <contour>
      <point x="348" y="0" type="line"/>
      <point x="433" y="0" type="line"/>
      <point x="433" y="166" type="line"/>
      <point x="545" y="166" type="line"/>
      <point x="545" y="245" type="line"/>
      <point x="433" y="245" type="line"/>
      <point x="433" y="697" type="line"/>
      <point x="355" y="697" type="line"/>
      <point x="16" y="233" type="line"/>
      <point x="16" y="166" type="line"/>
      <point x="348" y="166" type="line"/>
    </contour>
    <contour>
      <point x="87" y="215" type="line"/>
      <point x="358" y="595" type="line"/>
      <point x="348" y="602" type="line"/>
      <point x="348" y="245" type="line"/>
      <point x="80" y="245" type="line"/>
    </contour>
  </outline>
</glyph>
<glyph name="seven" format="2">
  <advance width="560"/>
  <unicode hex="0037"/>
  <outline>
    <contour>
      <point x="104" y="0" type="line"/>
      <point x="198" y="0" type="line"/>
      <point x="528" y="632" type="line"/>
      <point x="528" y="697" type="line"/>
      <point x="28" y="697" type="line"/>
      <point x="28" y="618" type="line"/>
      <point x="467" y="618" type="line"/>
      <point x="444" y="648" type="line"/>
    </contour>
  </outline>
</glyph>
<glyph name="nine" format="2">
  <advance width="560"/>
  <unicode hex="0039"/>
  <outline>
    <contour>
      <point x="178" y="0" type="line"/>
      <point x="275" y="0" type="line"/>
      <point x="484" y="345" type="line" smooth="yes"/>
      <point x="507" y="383"/>
      <point x="522" y="427"/>
      <point x="522" y="472" type="curve" smooth="yes"/>
      <point x="522" y="605"/>
      <point x="412" y="705"/>
      <point x="279" y="705" type="curve" smooth="yes"/>
      <point x="146" y="705"/>
      <point x="37" y="605"/>
      <point x="37" y="471" type="curve" smooth="yes"/>
      <point x="37" y="343"/>
      <point x="138" y="241"/>
      <point x="268" y="241" type="curve" smooth="yes"/>
      <point x="301" y="241"/>
      <point x="336" y="252"/>
      <point x="366" y="272" type="curve"/>
      <point x="356" y="285" type="line"/>
    </contour>
    <contour>
      <point x="279" y="316" type="curve" smooth="yes"/>
      <point x="192" y="316"/>
      <point x="123" y="382"/>
      <point x="123" y="470" type="curve" smooth="yes"/>
      <point x="123" y="560"/>
      <point x="193" y="625"/>
      <point x="279" y="625" type="curve" smooth="yes"/>
      <point x="365" y="625"/>
      <point x="435" y="560"/>
      <point x="435" y="471" type="curve" smooth="yes"/>
      <point x="435" y="381"/>
      <point x="364" y="316"/>
    </contour>
  </outline>
</glyph>
<glyph name="question" format="2">
  <advance width="516"/>
  <unicode hex="003F"/>
  <outline>
    <contour>
      <point x="218" y="200" type="line"/>
      <point x="291" y="200" type="line"/>
      <point x="291" y="251" type="line" smooth="yes"/>
      <point x="291" y="374"/>
      <point x="465" y="350"/>
      <point x="465" y="524" type="curve" smooth="yes"/>
      <point x="465" y="648"/>
      <point x="376" y="705"/>
      <point x="258" y="705" type="curve" smooth="yes"/>
      <point x="133" y="705"/>
      <point x="44" y="633"/>
      <point x="43" y="503" type="curve"/>
      <point x="118" y="503" type="line"/>
      <point x="118" y="586"/>
      <point x="169" y="634"/>
      <point x="257" y="634" type="curve" smooth="yes"/>
      <point x="341" y="634"/>
      <point x="391" y="596"/>
      <point x="391" y="525" type="curve" smooth="yes"/>
      <point x="391" y="399"/>
      <point x="218" y="416"/>
      <point x="218" y="257" type="curve" smooth="yes"/>
    </contour>
    <contour>
      <point x="206" y="0" type="line"/>
      <point x="306" y="0" type="line"/>
      <point x="306" y="116" type="line"/>
      <point x="206" y="116" type="line"/>
    </contour>
  </outline>
</glyph>
<glyph name="at" format="2">
  <advance width="874"/>
  <unicode hex="0040"/>
  <outline>
    <contour>
      <point x="438" y="-107" type="curve" smooth="yes"/>
      <point x="506" y="-107"/>
      <point x="576" y="-89"/>
      <point x="632" y="-53" type="curve"/>
      <point x="603" y="2" type="line"/>
      <point x="551" y="-29"/>
      <point x="495" y="-45"/>
      <point x="438" y="-45" type="curve" smooth="yes"/>
      <point x="265" y="-45"/>
      <point x="124" y="88"/>
      <point x="124" y="266" type="curve" smooth="yes"/>
      <point x="124" y="452"/>
      <point x="261" y="584"/>
      <point x="438" y="584" type="curve" smooth="yes"/>
      <point x="619" y="584"/>
      <point x="752" y="453"/>
      <point x="752" y="273" type="curve" smooth="yes"/>
      <point x="752" y="188"/>
      <point x="730" y="138"/>
      <point x="678" y="138" type="curve" smooth="yes"/>
      <point x="638" y="138"/>
      <point x="622" y="158"/>
      <point x="622" y="205" type="curve" smooth="yes"/>
      <point x="622" y="452" type="line"/>
      <point x="557" y="452" type="line"/>
      <point x="548" y="372" type="line"/>
      <point x="557" y="365" type="line"/>
      <point x="531" y="426"/>
      <point x="479" y="460"/>
      <point x="414" y="460" type="curve" smooth="yes"/>
      <point x="311" y="460"/>
      <point x="233" y="381"/>
      <point x="233" y="264" type="curve" smooth="yes"/>
      <point x="233" y="148"/>
      <point x="311" y="70"/>
      <point x="414" y="70" type="curve" smooth="yes"/>
      <point x="479" y="70"/>
      <point x="544" y="103"/>
      <point x="572" y="176" type="curve"/>
      <point x="555" y="201" type="line"/>
      <point x="555" y="170" type="line" smooth="yes"/>
      <point x="555" y="118"/>
      <point x="598" y="73"/>
      <point x="671" y="73" type="curve" smooth="yes"/>
      <point x="770" y="73"/>
      <point x="814" y="154"/>
      <point x="814" y="274" type="curve" smooth="yes"/>
      <point x="814" y="485"/>
      <point x="654" y="647"/>
      <point x="438" y="647" type="curve" smooth="yes"/>
      <point x="225" y="647"/>
      <point x="61" y="485"/>
      <point x="61" y="266" type="curve" smooth="yes"/>
      <point x="61" y="53"/>
      <point x="230" y="-107"/>
    </contour>
    <contour>
      <point x="430" y="137" type="curve" smooth="yes"/>
      <point x="363" y="137"/>
      <point x="314" y="189"/>
      <point x="314" y="264" type="curve" smooth="yes"/>
      <point x="314" y="340"/>
      <point x="363" y="393"/>
      <point x="430" y="393" type="curve" smooth="yes"/>
      <point x="497" y="393"/>
      <point x="545" y="341"/>
      <point x="545" y="264" type="curve" smooth="yes"/>
      <point x="545" y="188"/>
      <point x="497" y="137"/>
    </contour>
  </outline>
</glyph>
<glyph name="B" format="2">
  <advance width="601"/>
  <unicode hex="0042"/>
  <anchor x="292" y="0" name="bottom"/>
  <anchor x="292" y="697" name="top"/>
  <outline>
    <contour>
      <point x="79" y="0" type="line"/>
      <point x="326" y="0" type="line" smooth="yes"/>
      <point x="469" y="0"/>
      <point x="550" y="72"/>
      <point x="550" y="197" type="curve" smooth="yes"/>
      <point x="550" y="289"/>
      <point x="507" y="350"/>
      <point x="426" y="373" type="curve"/>
      <point x="482" y="399"/>
      <point x="514" y="454"/>
      <point x="514" y="523" type="curve" smooth="yes"/>
      <point x="514" y="632"/>
      <point x="434" y="697"/>
      <point x="302" y="697" type="curve" smooth="yes"/>
      <point x="79" y="697" type="line"/>
    </contour>
    <contour>
      <point x="167" y="81" type="line"/>
      <point x="167" y="321" type="line"/>
      <point x="339" y="321" type="line" smooth="yes"/>
      <point x="417" y="321"/>
      <point x="463" y="277"/>
      <point x="463" y="201" type="curve" smooth="yes"/>
      <point x="463" y="121"/>
      <point x="415" y="81"/>
      <point x="320" y="81" type="curve" smooth="yes"/>
    </contour>
    <contour>
      <point x="167" y="400" type="line"/>
      <point x="167" y="616" type="line"/>
      <point x="302" y="616" type="line" smooth="yes"/>
      <point x="381" y="616"/>
      <point x="427" y="577"/>
      <point x="427" y="510" type="curve" smooth="yes"/>
      <point x="427" y="442"/>
      <point x="383" y="400"/>
      <point x="316" y="400" type="curve" smooth="yes"/>
    </contour>
  </outline>
</glyph>
<glyph name="C" format="2">
  <advance width="704"/>
  <unicode hex="0043"/>
  <anchor x="361" y="0" name="bottom"/>
  <anchor x="361" y="697" name="top"/>
  <outline>
    <contour>
      <point x="372" y="-12" type="curve" smooth="yes"/>
      <point x="512" y="-12"/>
      <point x="619" y="63"/>
      <point x="665" y="185" type="curve"/>
      <point x="583" y="215" type="line"/>
      <point x="548" y="125"/>
      <point x="474" y="72"/>
      <point x="372" y="72" type="curve" smooth="yes"/>
      <point x="229" y="72"/>
      <point x="138" y="179"/>
      <point x="138" y="349" type="curve" smooth="yes"/>
      <point x="138" y="518"/>
      <point x="229" y="625"/>
      <point x="372" y="625" type="curve" smooth="yes"/>
      <point x="474" y="625"/>
      <point x="548" y="572"/>
      <point x="583" y="482" type="curve"/>
      <point x="665" y="513" type="line"/>
      <point x="619" y="635"/>
      <point x="512" y="709"/>
      <point x="372" y="709" type="curve" smooth="yes"/>
      <point x="179" y="709"/>
      <point x="50" y="565"/>
      <point x="50" y="349" type="curve" smooth="yes"/>
      <point x="50" y="132"/>
      <point x="180" y="-12"/>
    </contour>
  </outline>
</glyph>
<glyph name="E" format="2">
  <advance width="585"/>
  <unicode hex="0045"/>
  <anchor x="309" y="0" name="bottom"/>
  <anchor x="538" y="0" name="ogonek"/>
  <anchor x="309" y="697" name="top"/>
  <anchor x="-3" y="697" name="topleft"/>
  <outline>
    <contour>
      <point x="79" y="0" type="line"/>
      <point x="538" y="0" type="line"/>
      <point x="538" y="79" type="line"/>
      <point x="167" y="79" type="line"/>
      <point x="167" y="316" type="line"/>
      <point x="504" y="316" type="line"/>
      <point x="504" y="395" type="line"/>
      <point x="167" y="395" type="line"/>
      <point x="167" y="618" type="line"/>
      <point x="538" y="618" type="line"/>
      <point x="538" y="697" type="line"/>
      <point x="79" y="697" type="line"/>
    </contour>
  </outline>
</glyph>
<glyph name="F" format="2">
  <advance width="565"/>
  <unicode hex="0046"/>
  <anchor x="300" y="0" name="bottom"/>
  <anchor x="300" y="697" name="top"/>
  <outline>
    <contour>
      <point x="79" y="0" type="line"/>
      <point x="167" y="0" type="line"/>
      <point x="167" y="316" type="line"/>
      <point x="487" y="316" type="line"/>
      <point x="487" y="395" type="line"/>
      <point x="167" y="395" type="line"/>
      <point x="167" y="618" type="line"/>
      <point x="536" y="618" type="line"/>
      <point x="536" y="697" type="line"/>
      <point x="79" y="697" type="line"/>
    </contour>
  </outline>
</glyph>
<glyph name="I" format="2">
  <advance width="246"/>
  <unicode hex="0049"/>
  <anchor x="124" y="0" name="bottom"/>
  <anchor x="167" y="0" name="ogonek"/>
  <anchor x="124" y="697" name="top"/>
  <anchor x="-3" y="697" name="topleft"/>
  <outline>
    <contour>
      <point x="79" y="0" type="line"/>
      <point x="167" y="0" type="line"/>
      <point x="167" y="697" type="line"/>
      <point x="79" y="697" type="line"/>
    </contour>
  </outline>
</glyph>
<glyph name="K" format="2">
  <advance width="634"/>
  <unicode hex="004B"/>
  <anchor x="318" y="0" name="bottom"/>
  <anchor x="318" y="697" name="top"/>
  <outline>
    <contour>
      <point x="148" y="222" type="line"/>
      <point x="613" y="697" type="line"/>
      <point x="495" y="697" type="line"/>
      <point x="148" y="334" type="line"/>
    </contour>
    <contour>
      <point x="79" y="0" type="line"/>
      <point x="167" y="0" type="line"/>
      <point x="167" y="697" type="line"/>
      <point x="79" y="697" type="line"/>
    </contour>
    <contour>
      <point x="512" y="0" type="line"/>
      <point x="615" y="0" type="line"/>
      <point x="341" y="436" type="line"/>
      <point x="275" y="375" type="line"/>
    </contour>
  </outline>
</glyph>
<glyph name="L" format="2">
  <advance width="495"/>
  <unicode hex="004C"/>
  <anchor x="247" y="0" name="bottom"/>
  <anchor x="160" y="349" name="center"/>
  <anchor x="124" y="697" name="top"/>
  <anchor x="411" y="493" name="topright"/>
  <outline>
    <contour>
      <point x="79" y="0" type="line"/>
      <point x="479" y="0" type="line"/>
      <point x="479" y="79" type="line"/>
      <point x="167" y="79" type="line"/>
      <point x="167" y="697" type="line"/>
      <point x="79" y="697" type="line"/>
    </contour>
  </outline>
</glyph>
<glyph name="M" format="2">
  <advance width="839"/>
  <unicode hex="004D"/>
  <anchor x="420" y="0" name="bottom"/>
  <anchor x="420" y="697" name="top"/>
  <outline>
    <contour>
      <point x="79" y="0" type="line"/>
      <point x="167" y="0" type="line"/>
      <point x="167" y="595" type="line"/>
      <point x="160" y="594" type="line"/>
      <point x="377" y="209" type="line"/>
      <point x="463" y="209" type="line"/>
      <point x="679" y="594" type="line"/>
      <point x="672" y="595" type="line"/>
      <point x="672" y="0" type="line"/>
      <point x="760" y="0" type="line"/>
      <point x="760" y="697" type="line"/>
      <point x="631" y="697" type="line"/>
      <point x="412" y="296" type="line"/>
      <point x="428" y="296" type="line"/>
      <point x="209" y="697" type="line"/>
      <point x="79" y="697" type="line"/>
    </contour>
  </outline>
</glyph>
<glyph name="N" format="2">
  <advance width="676"/>
  <unicode hex="004E"/>
  <anchor x="334" y="0" name="bottom"/>
  <anchor x="334" y="697" name="top"/>
  <outline>
    <contour>
      <point x="79" y="0" type="line"/>
      <point x="167" y="0" type="line"/>
      <point x="167" y="584" type="line"/>
      <point x="147" y="584" type="line"/>
      <point x="502" y="0" type="line"/>
      <point x="597" y="0" type="line"/>
      <point x="597" y="697" type="line"/>
      <point x="509" y="697" type="line"/>
      <point x="509" y="114" type="line"/>
      <point x="529" y="114" type="line"/>
      <point x="172" y="697" type="line"/>
      <point x="79" y="697" type="line"/>
    </contour>
  </outline>
</glyph>
<glyph name="O" format="2">
  <advance width="748"/>
  <unicode hex="004F"/>
  <guideline x="1394" y="1394" angle="0" name=""/>
  <anchor x="373" y="0" name="bottom"/>
  <anchor x="373" y="349" name="center"/>
  <anchor x="448" y="0" name="ogonek"/>
  <anchor x="373" y="697" name="top"/>
  <anchor x="10" y="697" name="topleft"/>
  <anchor x="656" y="493" name="topright"/>
  <outline>
    <contour>
      <point x="372" y="-12" type="curve" smooth="yes"/>
      <point x="566" y="-12"/>
      <point x="697" y="131"/>
      <point x="697" y="348" type="curve" smooth="yes"/>
      <point x="697" y="566"/>
      <point x="567" y="709"/>
      <point x="372" y="709" type="curve" smooth="yes"/>
      <point x="180" y="709"/>
      <point x="50" y="566"/>
      <point x="50" y="348" type="curve" smooth="yes"/>
      <point x="50" y="132"/>
      <point x="179" y="-12"/>
    </contour>
    <contour>
      <point x="372" y="72" type="curve" smooth="yes"/>
      <point x="229" y="72"/>
      <point x="138" y="178"/>
      <point x="138" y="348" type="curve" smooth="yes"/>
      <point x="138" y="519"/>
      <point x="229" y="625"/>
      <point x="372" y="625" type="curve" smooth="yes"/>
      <point x="517" y="625"/>
      <point x="608" y="518"/>
      <point x="608" y="348" type="curve" smooth="yes"/>
      <point x="608" y="179"/>
      <point x="517" y="72"/>
    </contour>
  </outline>
</glyph>
<glyph name="P" format="2">
  <advance width="554"/>
  <unicode hex="0050"/>
  <anchor x="267" y="0" name="bottom"/>
  <anchor x="267" y="697" name="top"/>
  <outline>
    <contour>
      <point x="79" y="0" type="line"/>
      <point x="166" y="0" type="line"/>
      <point x="166" y="300" type="line"/>
      <point x="287" y="300" type="line" smooth="yes"/>
      <point x="436" y="300"/>
      <point x="519" y="371"/>
      <point x="519" y="500" type="curve" smooth="yes"/>
      <point x="519" y="629"/>
      <point x="437" y="697"/>
      <point x="287" y="697" type="curve" smooth="yes"/>
      <point x="79" y="697" type="line"/>
    </contour>
    <contour>
      <point x="166" y="378" type="line"/>
      <point x="166" y="618" type="line"/>
      <point x="278" y="618" type="line" smooth="yes"/>
      <point x="377" y="618"/>
      <point x="431" y="580"/>
      <point x="431" y="499" type="curve" smooth="yes"/>
      <point x="431" y="416"/>
      <point x="374" y="378"/>
      <point x="278" y="378" type="curve" smooth="yes"/>
    </contour>
  </outline>
</glyph>
<glyph name="Q" format="2">
  <advance width="774"/>
  <unicode hex="0051"/>
  <anchor x="384" y="0" name="bottom"/>
  <anchor x="384" y="697" name="top"/>
  <outline>
    <contour>
      <point x="372" y="-12" type="curve" smooth="yes"/>
      <point x="566" y="-12"/>
      <point x="697" y="131"/>
      <point x="697" y="348" type="curve" smooth="yes"/>
      <point x="697" y="566"/>
      <point x="567" y="709"/>
      <point x="372" y="709" type="curve" smooth="yes"/>
      <point x="180" y="709"/>
      <point x="50" y="566"/>
      <point x="50" y="348" type="curve" smooth="yes"/>
      <point x="50" y="132"/>
      <point x="180" y="-12"/>
    </contour>
    <contour>
      <point x="670" y="-46" type="line"/>
      <point x="723" y="6" type="line"/>
      <point x="451" y="273" type="line"/>
      <point x="399" y="218" type="line"/>
    </contour>
    <contour>
      <point x="372" y="72" type="curve" smooth="yes"/>
      <point x="229" y="72"/>
      <point x="138" y="178"/>
      <point x="138" y="348" type="curve" smooth="yes"/>
      <point x="138" y="519"/>
      <point x="229" y="625"/>
      <point x="372" y="625" type="curve" smooth="yes"/>
      <point x="517" y="625"/>
      <point x="608" y="518"/>
      <point x="608" y="348" type="curve" smooth="yes"/>
      <point x="608" y="179"/>
      <point x="517" y="72"/>
    </contour>
  </outline>
</glyph>
<glyph name="R" format="2">
  <advance width="598"/>
  <unicode hex="0052"/>
  <anchor x="288" y="0" name="bottom"/>
  <anchor x="288" y="697" name="top"/>
  <outline>
    <contour>
      <point x="79" y="0" type="line"/>
      <point x="167" y="0" type="line"/>
      <point x="167" y="259" type="line"/>
      <point x="247" y="259" type="line" smooth="yes"/>
      <point x="273" y="259"/>
      <point x="304" y="259"/>
      <point x="324" y="260" type="curve"/>
      <point x="451" y="272"/>
      <point x="519" y="361"/>
      <point x="519" y="477" type="curve" smooth="yes"/>
      <point x="519" y="599"/>
      <point x="446" y="697"/>
      <point x="287" y="697" type="curve" smooth="yes"/>
      <point x="79" y="697" type="line"/>
    </contour>
    <contour>
      <point x="469" y="0" type="line"/>
      <point x="570" y="0" type="line"/>
      <point x="378" y="281" type="line"/>
      <point x="288" y="270" type="line"/>
    </contour>
    <contour>
      <point x="167" y="337" type="line"/>
      <point x="167" y="618" type="line"/>
      <point x="278" y="618" type="line" smooth="yes"/>
      <point x="367" y="618"/>
      <point x="431" y="563"/>
      <point x="431" y="476" type="curve" smooth="yes"/>
      <point x="431" y="390"/>
      <point x="369" y="337"/>
      <point x="278" y="337" type="curve" smooth="yes"/>
    </contour>
  </outline>
</glyph>
<glyph name="S" format="2">
  <advance width="564"/>
  <unicode hex="0053"/>
  <anchor x="282" y="0" name="bottom"/>
  <anchor x="282" y="697" name="top"/>
  <outline>
    <contour>
      <point x="292" y="-11" type="curve" smooth="yes"/>
      <point x="425" y="-11"/>
      <point x="519" y="75"/>
      <point x="519" y="193" type="curve" smooth="yes"/>
      <point x="519" y="303"/>
      <point x="442" y="354"/>
      <point x="321" y="400" type="curve" smooth="yes"/>
      <point x="224" y="436"/>
      <point x="169" y="464"/>
      <point x="169" y="529" type="curve" smooth="yes"/>
      <point x="169" y="588"/>
      <point x="217" y="631"/>
      <point x="286" y="631" type="curve" smooth="yes"/>
      <point x="343" y="631"/>
      <point x="387" y="601"/>
      <point x="418" y="547" type="curve"/>
      <point x="488" y="590" type="line"/>
      <point x="446" y="668"/>
      <point x="377" y="709"/>
      <point x="289" y="709" type="curve" smooth="yes"/>
      <point x="164" y="709"/>
      <point x="81" y="632"/>
      <point x="81" y="527" type="curve" smooth="yes"/>
      <point x="81" y="421"/>
      <point x="158" y="371"/>
      <point x="274" y="327" type="curve" smooth="yes"/>
      <point x="367" y="291"/>
      <point x="432" y="262"/>
      <point x="432" y="188" type="curve" smooth="yes"/>
      <point x="432" y="117"/>
      <point x="372" y="68"/>
      <point x="295" y="68" type="curve" smooth="yes"/>
      <point x="205" y="68"/>
      <point x="139" y="117"/>
      <point x="124" y="211" type="curve"/>
      <point x="38" y="190" type="line"/>
      <point x="58" y="68"/>
      <point x="152" y="-11"/>
    </contour>
  </outline>
</glyph>
<glyph name="V" format="2">
  <advance width="656"/>
  <unicode hex="0056"/>
  <anchor x="329" y="0" name="bottom"/>
  <anchor x="329" y="697" name="top"/>
  <outline>
    <contour>
      <point x="295" y="0" type="line"/>
      <point x="363" y="0" type="line"/>
      <point x="639" y="697" type="line"/>
      <point x="542" y="697" type="line"/>
      <point x="317" y="107" type="line"/>
      <point x="342" y="107" type="line"/>
      <point x="114" y="697" type="line"/>
      <point x="17" y="697" type="line"/>
    </contour>
  </outline>
</glyph>
<glyph name="W" format="2">
  <advance width="957"/>
  <unicode hex="0057"/>
  <anchor x="479" y="0" name="bottom"/>
  <anchor x="479" y="697" name="top"/>
  <outline>
    <contour>
      <point x="227" y="0" type="line"/>
      <point x="315" y="0" type="line"/>
      <point x="486" y="554" type="line"/>
      <point x="472" y="554" type="line"/>
      <point x="643" y="0" type="line"/>
      <point x="730" y="0" type="line"/>
      <point x="934" y="697" type="line"/>
      <point x="842" y="697" type="line"/>
      <point x="682" y="133" type="line"/>
      <point x="523" y="659" type="line"/>
      <point x="435" y="659" type="line"/>
      <point x="276" y="133" type="line"/>
      <point x="115" y="697" type="line"/>
      <point x="23" y="697" type="line"/>
    </contour>
  </outline>
</glyph>
<glyph name="X" format="2">
  <advance width="641"/>
  <unicode hex="0058"/>
  <anchor x="321" y="0" name="bottom"/>
  <anchor x="321" y="697" name="top"/>
  <outline>
    <contour>
      <point x="21" y="0" type="line"/>
      <point x="125" y="0" type="line"/>
      <point x="320" y="286" type="line"/>
      <point x="516" y="0" type="line"/>
      <point x="621" y="0" type="line"/>
      <point x="381" y="350" type="line"/>
      <point x="617" y="697" type="line"/>
      <point x="512" y="697" type="line"/>
      <point x="321" y="412" type="line"/>
      <point x="129" y="697" type="line"/>
      <point x="24" y="697" type="line"/>
      <point x="260" y="350" type="line"/>
    </contour>
  </outline>
</glyph>
<glyph name="Z" format="2">
  <advance width="582"/>
  <unicode hex="005A"/>
  <anchor x="293" y="0" name="bottom"/>
  <anchor x="293" y="349" name="center"/>
  <anchor x="293" y="697" name="top"/>
  <outline>
    <contour>
      <point x="32" y="0" type="line"/>
      <point x="549" y="0" type="line"/>
      <point x="549" y="79" type="line"/>
      <point x="116" y="79" type="line"/>
      <point x="127" y="63" type="line"/>
      <point x="537" y="623" type="line"/>
      <point x="537" y="697" type="line"/>
      <point x="56" y="697" type="line"/>
      <point x="56" y="618" type="line"/>
      <point x="461" y="618" type="line"/>
      <point x="449" y="645" type="line"/>
      <point x="32" y="75" type="line"/>
    </contour>
  </outline>
</glyph>
<glyph name="b" format="2">
  <advance width="587"/>
  <unicode hex="0062"/>
  <anchor x="293" y="0" name="bottom"/>
  <anchor x="149" y="608" name="center"/>
  <anchor x="114" y="697" name="top"/>
  <anchor x="-50" y="493" name="topleft"/>
  <outline>
    <contour>
      <point x="314" y="-8" type="curve" smooth="yes"/>
      <point x="448" y="-8"/>
      <point x="538" y="102"/>
      <point x="538" y="247" type="curve" smooth="yes"/>
      <point x="538" y="402"/>
      <point x="438" y="501"/>
      <point x="314" y="501" type="curve" smooth="yes"/>
      <point x="220" y="501"/>
      <point x="153" y="437"/>
      <point x="132" y="360" type="curve"/>
      <point x="156" y="346" type="line"/>
      <point x="156" y="697" type="line"/>
      <point x="72" y="697" type="line"/>
      <point x="72" y="0" type="line"/>
      <point x="156" y="0" type="line"/>
      <point x="156" y="147" type="line"/>
      <point x="128" y="138" type="line"/>
      <point x="153" y="52"/>
      <point x="220" y="-8"/>
    </contour>
    <contour>
      <point x="300" y="70" type="curve" smooth="yes"/>
      <point x="211" y="70"/>
      <point x="149" y="143"/>
      <point x="149" y="247" type="curve" smooth="yes"/>
      <point x="149" y="351"/>
      <point x="211" y="424"/>
      <point x="300" y="424" type="curve" smooth="yes"/>
      <point x="390" y="424"/>
      <point x="453" y="351"/>
      <point x="453" y="247" type="curve" smooth="yes"/>
      <point x="453" y="143"/>
      <point x="390" y="70"/>
    </contour>
  </outline>
</glyph>
<glyph name="c" format="2">
  <advance width="518"/>
  <unicode hex="0063"/>
  <anchor x="287" y="0" name="bottom"/>
  <anchor x="268" y="493" name="top"/>
  <outline>
    <contour>
      <point x="277" y="-8" type="curve" smooth="yes"/>
      <point x="370" y="-8"/>
      <point x="443" y="38"/>
      <point x="477" y="131" type="curve"/>
      <point x="402" y="160" type="line"/>
      <point x="383" y="103"/>
      <point x="342" y="66"/>
      <point x="277" y="66" type="curve" smooth="yes"/>
      <point x="178" y="66"/>
      <point x="133" y="153"/>
      <point x="133" y="247" type="curve" smooth="yes"/>
      <point x="133" y="340"/>
      <point x="178" y="428"/>
      <point x="277" y="428" type="curve" smooth="yes"/>
      <point x="342" y="428"/>
      <point x="383" y="390"/>
      <point x="402" y="334" type="curve"/>
      <point x="477" y="363" type="line"/>
      <point x="443" y="456"/>
      <point x="370" y="501"/>
      <point x="277" y="501" type="curve" smooth="yes"/>
      <point x="130" y="501"/>
      <point x="49" y="384"/>
      <point x="49" y="247" type="curve" smooth="yes"/>
      <point x="49" y="109"/>
      <point x="130" y="-8"/>
    </contour>
  </outline>
</glyph>
<glyph name="f" format="2">
  <advance width="335"/>
  <unicode hex="0066"/>
  <anchor x="154" y="0" name="bottom"/>
  <anchor x="167" y="697" name="top"/>
  <outline>
    <contour>
      <point x="112" y="0" type="line"/>
      <point x="197" y="0" type="line"/>
      <point x="197" y="427" type="line"/>
      <point x="312" y="427" type="line"/>
      <point x="312" y="493" type="line"/>
      <point x="197" y="493" type="line"/>
      <point x="197" y="557" type="line" smooth="yes"/>
      <point x="197" y="606"/>
      <point x="217" y="634"/>
      <point x="260" y="634" type="curve" smooth="yes"/>
      <point x="278" y="634"/>
      <point x="296" y="629"/>
      <point x="311" y="621" type="curve"/>
      <point x="339" y="685" type="line"/>
      <point x="314" y="698"/>
      <point x="287" y="705"/>
      <point x="251" y="705" type="curve" smooth="yes"/>
      <point x="173" y="705"/>
      <point x="113" y="669"/>
      <point x="113" y="557" type="curve" smooth="yes"/>
      <point x="113" y="493" type="line"/>
      <point x="10" y="493" type="line"/>
      <point x="10" y="427" type="line"/>
      <point x="112" y="427" type="line"/>
    </contour>
  </outline>
</glyph>
<glyph name="g" format="2">
  <advance width="588"/>
  <unicode hex="0067"/>
  <anchor x="280" y="-212" name="bottom"/>
  <anchor x="298" y="493" name="top"/>
  <outline>
    <contour>
      <point x="280" y="-212" type="curve" smooth="yes"/>
      <point x="417" y="-212"/>
      <point x="515" y="-148"/>
      <point x="515" y="13" type="curve" smooth="yes"/>
      <point x="515" y="493" type="line"/>
      <point x="431" y="493" type="line"/>
      <point x="431" y="364" type="line"/>
      <point x="439" y="375" type="line"/>
      <point x="414" y="452"/>
      <point x="351" y="501"/>
      <point x="263" y="501" type="curve" smooth="yes"/>
      <point x="145" y="501"/>
      <point x="49" y="402"/>
      <point x="49" y="255" type="curve" smooth="yes"/>
      <point x="49" y="117"/>
      <point x="136" y="7"/>
      <point x="263" y="7" type="curve" smooth="yes"/>
      <point x="346" y="7"/>
      <point x="412" y="51"/>
      <point x="442" y="135" type="curve"/>
      <point x="431" y="144" type="line"/>
      <point x="431" y="13" type="line" smooth="yes"/>
      <point x="431" y="-107"/>
      <point x="359" y="-140"/>
      <point x="280" y="-140" type="curve" smooth="yes"/>
      <point x="208" y="-140"/>
      <point x="157" y="-96"/>
      <point x="129" y="-40" type="curve"/>
      <point x="64" y="-91" type="line"/>
      <point x="105" y="-164"/>
      <point x="178" y="-212"/>
    </contour>
    <contour>
      <point x="286" y="87" type="curve" smooth="yes"/>
      <point x="196" y="87"/>
      <point x="134" y="158"/>
      <point x="134" y="254" type="curve" smooth="yes"/>
      <point x="134" y="351"/>
      <point x="197" y="424"/>
      <point x="287" y="424" type="curve" smooth="yes"/>
      <point x="376" y="424"/>
      <point x="438" y="351"/>
      <point x="438" y="254" type="curve" smooth="yes"/>
      <point x="438" y="158"/>
      <point x="377" y="87"/>
    </contour>
  </outline>
</glyph>
<glyph name="k" format="2">
  <advance width="532"/>
  <unicode hex="006B"/>
  <anchor x="271" y="0" name="bottom"/>
  <anchor x="115" y="697" name="top"/>
  <outline>
    <contour>
      <point x="408" y="0" type="line"/>
      <point x="509" y="0" type="line"/>
      <point x="306" y="311" type="line"/>
      <point x="483" y="493" type="line"/>
      <point x="374" y="493" type="line"/>
      <point x="147" y="259" type="line"/>
      <point x="147" y="150" type="line"/>
      <point x="244" y="254" type="line"/>
    </contour>
    <contour>
      <point x="72" y="0" type="line"/>
      <point x="157" y="0" type="line"/>
      <point x="157" y="697" type="line"/>
      <point x="72" y="697" type="line"/>
    </contour>
  </outline>
</glyph>
<glyph name="l" format="2">
  <advance width="224"/>
  <unicode hex="006C"/>
  <anchor x="139" y="0" name="bottom"/>
  <anchor x="130" y="378" name="center"/>
  <anchor x="112" y="697" name="top"/>
  <anchor x="283" y="493" name="topright"/>
  <outline>
    <contour>
      <point x="154" y="0" type="line"/>
      <point x="154" y="697" type="line"/>
      <point x="70" y="697" type="line"/>
      <point x="70" y="0" type="line"/>
    </contour>
  </outline>
</glyph>
<glyph name="n" format="2">
  <advance width="547"/>
  <unicode hex="006E"/>
  <anchor x="271" y="0" name="bottom"/>
  <anchor x="268" y="493" name="top"/>
  <outline>
    <contour>
      <point x="72" y="0" type="line"/>
      <point x="157" y="0" type="line"/>
      <point x="157" y="246" type="line" smooth="yes"/>
      <point x="157" y="372"/>
      <point x="203" y="428"/>
      <point x="285" y="428" type="curve" smooth="yes"/>
      <point x="359" y="428"/>
      <point x="396" y="382"/>
      <point x="396" y="282" type="curve" smooth="yes"/>
      <point x="396" y="0" type="line"/>
      <point x="481" y="0" type="line"/>
      <point x="481" y="313" type="line" smooth="yes"/>
      <point x="481" y="437"/>
      <point x="416" y="501"/>
      <point x="308" y="501" type="curve" smooth="yes"/>
      <point x="225" y="501"/>
      <point x="164" y="456"/>
      <point x="137" y="381" type="curve"/>
      <point x="157" y="388" type="line"/>
      <point x="157" y="493" type="line"/>
      <point x="72" y="493" type="line"/>
    </contour>
  </outline>
</glyph>
<glyph name="o" format="2">
  <advance width="577"/>
  <unicode hex="006F"/>
  <anchor x="289" y="0" name="bottom"/>
  <anchor x="289" y="247" name="center"/>
  <anchor x="352" y="0" name="ogonek"/>
  <anchor x="289" y="493" name="top"/>
  <anchor x="515" y="357" name="topright"/>
  <outline>
    <contour>
      <point x="289" y="-8" type="curve" smooth="yes"/>
      <point x="427" y="-8"/>
      <point x="528" y="99"/>
      <point x="528" y="247" type="curve" smooth="yes"/>
      <point x="528" y="395"/>
      <point x="428" y="501"/>
      <point x="289" y="501" type="curve" smooth="yes"/>
      <point x="148" y="501"/>
      <point x="49" y="395"/>
      <point x="49" y="247" type="curve" smooth="yes"/>
      <point x="49" y="98"/>
      <point x="150" y="-8"/>
    </contour>
    <contour>
      <point x="289" y="67" type="curve" smooth="yes"/>
      <point x="194" y="67"/>
      <point x="133" y="138"/>
      <point x="133" y="247" type="curve" smooth="yes"/>
      <point x="133" y="356"/>
      <point x="194" y="427"/>
      <point x="289" y="427" type="curve" smooth="yes"/>
      <point x="383" y="427"/>
      <point x="443" y="357"/>
      <point x="443" y="247" type="curve" smooth="yes"/>
      <point x="443" y="138"/>
      <point x="383" y="67"/>
    </contour>
  </outline>
</glyph>
<glyph name="p" format="2">
  <advance width="587"/>
  <unicode hex="0070"/>
  <guideline x="367" y="-204" angle="0" name=""/>
  <anchor x="114" y="-204" name="bottom"/>
  <anchor x="-50" y="0" name="bottomleft"/>
  <anchor x="149" y="-115" name="center"/>
  <anchor x="293" y="493" name="top"/>
  <outline>
    <contour>
      <point x="72" y="-204" type="line"/>
      <point x="156" y="-204" type="line"/>
      <point x="156" y="147" type="line"/>
      <point x="132" y="124" type="line"/>
      <point x="153" y="47"/>
      <point x="220" y="-8"/>
      <point x="314" y="-8" type="curve" smooth="yes"/>
      <point x="438" y="-8"/>
      <point x="538" y="91"/>
      <point x="538" y="246" type="curve" smooth="yes"/>
      <point x="538" y="391"/>
      <point x="448" y="501"/>
      <point x="314" y="501" type="curve" smooth="yes"/>
      <point x="220" y="501"/>
      <point x="155" y="451"/>
      <point x="129" y="365" type="curve"/>
      <point x="156" y="346" type="line"/>
      <point x="156" y="493" type="line"/>
      <point x="72" y="493" type="line"/>
    </contour>
    <contour>
      <point x="300" y="69" type="curve" smooth="yes"/>
      <point x="211" y="69"/>
      <point x="149" y="142"/>
      <point x="149" y="246" type="curve" smooth="yes"/>
      <point x="149" y="350"/>
      <point x="211" y="423"/>
      <point x="300" y="423" type="curve" smooth="yes"/>
      <point x="390" y="423"/>
      <point x="453" y="350"/>
      <point x="453" y="246" type="curve" smooth="yes"/>
      <point x="453" y="142"/>
      <point x="390" y="69"/>
    </contour>
  </outline>
</glyph>
<glyph name="q" format="2">
  <advance width="587"/>
  <unicode hex="0071"/>
  <guideline x="383" y="-204" angle="0" name=""/>
  <anchor x="473" y="-204" name="bottom"/>
  <anchor x="637" y="0" name="bottomright"/>
  <anchor x="438" y="-115" name="center"/>
  <anchor x="294" y="493" name="top"/>
  <outline>
    <contour>
      <point x="431" y="-204" type="line"/>
      <point x="515" y="-204" type="line"/>
      <point x="515" y="493" type="line"/>
      <point x="431" y="493" type="line"/>
      <point x="431" y="346" type="line"/>
      <point x="458" y="365" type="line"/>
      <point x="432" y="451"/>
      <point x="367" y="501"/>
      <point x="273" y="501" type="curve" smooth="yes"/>
      <point x="139" y="501"/>
      <point x="49" y="391"/>
      <point x="49" y="246" type="curve" smooth="yes"/>
      <point x="49" y="91"/>
      <point x="149" y="-8"/>
      <point x="273" y="-8" type="curve" smooth="yes"/>
      <point x="367" y="-8"/>
      <point x="434" y="47"/>
      <point x="455" y="124" type="curve"/>
      <point x="431" y="147" type="line"/>
    </contour>
    <contour>
      <point x="287" y="69" type="curve" smooth="yes"/>
      <point x="197" y="69"/>
      <point x="134" y="142"/>
      <point x="134" y="246" type="curve" smooth="yes"/>
      <point x="134" y="350"/>
      <point x="197" y="423"/>
      <point x="287" y="423" type="curve" smooth="yes"/>
      <point x="376" y="423"/>
      <point x="438" y="350"/>
      <point x="438" y="246" type="curve" smooth="yes"/>
      <point x="438" y="142"/>
      <point x="376" y="69"/>
    </contour>
  </outline>
</glyph>
<glyph name="s" format="2">
  <advance width="470"/>
  <unicode hex="0073"/>
  <anchor x="232" y="0" name="bottom"/>
  <anchor x="232" y="493" name="top"/>
  <outline>
    <contour>
      <point x="235" y="-8" type="curve" smooth="yes"/>
      <point x="348" y="-8"/>
      <point x="422" y="53"/>
      <point x="422" y="146" type="curve" smooth="yes"/>
      <point x="422" y="257"/>
      <point x="323" y="280"/>
      <point x="240" y="300" type="curve" smooth="yes"/>
      <point x="171" y="316"/>
      <point x="135" y="331"/>
      <point x="135" y="373" type="curve" smooth="yes"/>
      <point x="135" y="410"/>
      <point x="174" y="433"/>
      <point x="226" y="433" type="curve" smooth="yes"/>
      <point x="278" y="433"/>
      <point x="323" y="413"/>
      <point x="350" y="367" type="curve"/>
      <point x="404" y="407" type="line"/>
      <point x="369" y="469"/>
      <point x="303" y="501"/>
      <point x="229" y="501" type="curve" smooth="yes"/>
      <point x="126" y="501"/>
      <point x="57" y="446"/>
      <point x="57" y="365" type="curve" smooth="yes"/>
      <point x="57" y="271"/>
      <point x="140" y="244"/>
      <point x="216" y="225" type="curve" smooth="yes"/>
      <point x="282" y="208"/>
      <point x="339" y="193"/>
      <point x="339" y="137" type="curve" smooth="yes"/>
      <point x="339" y="91"/>
      <point x="299" y="63"/>
      <point x="236" y="63" type="curve" smooth="yes"/>
      <point x="167" y="63"/>
      <point x="115" y="99"/>
      <point x="90" y="150" type="curve"/>
      <point x="31" y="100" type="line"/>
      <point x="64" y="43"/>
      <point x="134" y="-8"/>
    </contour>
  </outline>
</glyph>
<glyph name="t" format="2">
  <advance width="346"/>
  <unicode hex="0074"/>
  <anchor x="196" y="0" name="bottom"/>
  <anchor x="167" y="247" name="center"/>
  <anchor x="184" y="493" name="top"/>
  <anchor x="339" y="567" name="topright"/>
  <outline>
    <contour>
      <point x="236" y="-8" type="curve" smooth="yes"/>
      <point x="260" y="-8"/>
      <point x="287" y="-4"/>
      <point x="312" y="5" type="curve"/>
      <point x="312" y="71" type="line"/>
      <point x="291" y="65"/>
      <point x="271" y="62"/>
      <point x="258" y="62" type="curve" smooth="yes"/>
      <point x="213" y="62"/>
      <point x="198" y="93"/>
      <point x="198" y="148" type="curve" smooth="yes"/>
      <point x="198" y="673" type="line"/>
      <point x="112" y="673" type="line"/>
      <point x="112" y="126" type="line" smooth="yes"/>
      <point x="112" y="31"/>
      <point x="165" y="-8"/>
    </contour>
    <contour>
      <point x="10" y="427" type="line"/>
      <point x="312" y="427" type="line"/>
      <point x="312" y="493" type="line"/>
      <point x="10" y="493" type="line"/>
    </contour>
  </outline>
</glyph>
<glyph name="u" format="2">
  <advance width="547"/>
  <unicode hex="0075"/>
  <anchor x="275" y="0" name="bottom"/>
  <anchor x="473" y="0" name="ogonek"/>
  <anchor x="269" y="493" name="top"/>
  <anchor x="488" y="434" name="topright"/>
  <outline>
    <contour>
      <point x="238" y="-8" type="curve" smooth="yes"/>
      <point x="318" y="-8"/>
      <point x="383" y="31"/>
      <point x="411" y="105" type="curve"/>
      <point x="390" y="105" type="line"/>
      <point x="390" y="0" type="line"/>
      <point x="474" y="0" type="line"/>
      <point x="474" y="493" type="line"/>
      <point x="390" y="493" type="line"/>
      <point x="390" y="248" type="line" smooth="yes"/>
      <point x="390" y="122"/>
      <point x="344" y="66"/>
      <point x="262" y="66" type="curve" smooth="yes"/>
      <point x="188" y="66"/>
      <point x="150" y="112"/>
      <point x="150" y="211" type="curve" smooth="yes"/>
      <point x="150" y="493" type="line"/>
      <point x="66" y="493" type="line"/>
      <point x="66" y="181" type="line" smooth="yes"/>
      <point x="66" y="57"/>
      <point x="131" y="-8"/>
    </contour>
  </outline>
</glyph>
<glyph name="v" format="2">
  <advance width="521"/>
  <unicode hex="0076"/>
  <anchor x="261" y="0" name="bottom"/>
  <anchor x="261" y="493" name="top"/>
  <outline>
    <contour>
      <point x="225" y="0" type="line"/>
      <point x="296" y="0" type="line"/>
      <point x="497" y="493" type="line"/>
      <point x="405" y="493" type="line"/>
      <point x="260" y="109" type="line"/>
      <point x="116" y="493" type="line"/>
      <point x="23" y="493" type="line"/>
    </contour>
  </outline>
</glyph>
<glyph name="x" format="2">
  <advance width="520"/>
  <unicode hex="0078"/>
  <anchor x="260" y="0" name="bottom"/>
  <anchor x="260" y="493" name="top"/>
  <outline>
    <contour>
      <point x="27" y="0" type="line"/>
      <point x="129" y="0" type="line"/>
      <point x="260" y="189" type="line"/>
      <point x="389" y="0" type="line"/>
      <point x="493" y="0" type="line"/>
      <point x="315" y="248" type="line"/>
      <point x="493" y="493" type="line"/>
      <point x="391" y="493" type="line"/>
      <point x="260" y="306" type="line"/>
      <point x="131" y="493" type="line"/>
      <point x="27" y="493" type="line"/>
      <point x="204" y="248" type="line"/>
    </contour>
  </outline>
</glyph>
<glyph name="z" format="2">
  <advance width="472"/>
  <unicode hex="007A"/>
  <anchor x="237" y="0" name="bottom"/>
  <anchor x="237" y="247" name="center"/>
  <anchor x="237" y="493" name="top"/>
  <outline>
    <contour>
      <point x="37" y="0" type="line"/>
      <point x="429" y="0" type="line"/>
      <point x="429" y="69" type="line"/>
      <point x="118" y="69" type="line"/>
      <point x="121" y="43" type="line"/>
      <point x="431" y="429" type="line"/>
      <point x="431" y="493" type="line"/>
      <point x="51" y="493" type="line"/>
      <point x="51" y="425" type="line"/>
      <point x="353" y="425" type="line"/>
      <point x="349" y="444" type="line"/>
      <point x="37" y="60" type="line"/>
    </contour>
  </outline>
</glyph>
<glyph name="braceleft" format="2">
  <advance width="239"/>
  <unicode hex="007B"/>
  <outline>
    <contour>
      <point x="174" y="-247" type="curve" smooth="yes"/>
      <point x="235" y="-247" type="line"/>
      <point x="235" y="-192" type="line"/>
      <point x="201" y="-192" type="line" smooth="yes"/>
      <point x="154" y="-192"/>
      <point x="138" y="-162"/>
      <point x="138" y="-118" type="curve" smooth="yes"/>
      <point x="138" y="138" type="line" smooth="yes"/>
      <point x="138" y="197"/>
      <point x="114" y="227"/>
      <point x="73" y="243" type="curve"/>
      <point x="73" y="250" type="line"/>
      <point x="114" y="267"/>
      <point x="138" y="296"/>
      <point x="138" y="356" type="curve" smooth="yes"/>
      <point x="138" y="611" type="line" smooth="yes"/>
      <point x="138" y="655"/>
      <point x="154" y="685"/>
      <point x="201" y="685" type="curve" smooth="yes"/>
      <point x="235" y="685" type="line"/>
      <point x="235" y="740" type="line"/>
      <point x="174" y="740" type="line" smooth="yes"/>
      <point x="103" y="740"/>
      <point x="65" y="694"/>
      <point x="65" y="612" type="curve" smooth="yes"/>
      <point x="65" y="357" type="line" smooth="yes"/>
      <point x="65" y="307"/>
      <point x="41" y="283"/>
      <point x="4" y="278" type="curve"/>
      <point x="4" y="216" type="line"/>
      <point x="41" y="211"/>
      <point x="65" y="187"/>
      <point x="65" y="136" type="curve" smooth="yes"/>
      <point x="65" y="-119" type="line" smooth="yes"/>
      <point x="65" y="-201"/>
      <point x="103" y="-247"/>
    </contour>
  </outline>
</glyph>
<glyph name="asciitilde" format="2">
  <advance width="560"/>
  <unicode hex="007E"/>
  <outline>
    <contour>
      <point x="367" y="157" type="curve" smooth="yes"/>
      <point x="444" y="157"/>
      <point x="493" y="225"/>
      <point x="493" y="322" type="curve"/>
      <point x="426" y="322" type="line"/>
      <point x="426" y="262"/>
      <point x="402" y="217"/>
      <point x="367" y="217" type="curve" smooth="yes"/>
      <point x="300" y="217"/>
      <point x="306" y="337"/>
      <point x="191" y="337" type="curve" smooth="yes"/>
      <point x="116" y="337"/>
      <point x="68" y="274"/>
      <point x="68" y="183" type="curve"/>
      <point x="136" y="183" type="line"/>
      <point x="136" y="238"/>
      <point x="156" y="275"/>
      <point x="191" y="275" type="curve" smooth="yes"/>
      <point x="263" y="275"/>
      <point x="257" y="157"/>
    </contour>
  </outline>
</glyph>
<glyph name="cent" format="2">
  <advance width="560"/>
  <unicode hex="00A2"/>
  <outline>
    <contour>
      <point x="265" y="-113" type="line"/>
      <point x="325" y="-113" type="line"/>
      <point x="325" y="0" type="line"/>
      <point x="265" y="0" type="line"/>
    </contour>
    <contour>
      <point x="265" y="493" type="line"/>
      <point x="325" y="493" type="line"/>
      <point x="325" y="601" type="line"/>
      <point x="265" y="601" type="line"/>
    </contour>
    <component base="c" xOffset="21"/>
  </outline>
</glyph>
<glyph name="currency" format="2">
  <advance width="613"/>
  <unicode hex="00A4"/>
  <outline>
    <contour>
      <point x="110" y="68" type="line"/>
      <point x="171" y="130" type="line"/>
      <point x="211" y="100"/>
      <point x="258" y="83"/>
      <point x="309" y="83" type="curve" smooth="yes"/>
      <point x="357" y="83"/>
      <point x="405" y="98"/>
      <point x="445" y="130" type="curve"/>
      <point x="506" y="68" type="line"/>
      <point x="552" y="116" type="line"/>
      <point x="491" y="175" type="line"/>
      <point x="523" y="216"/>
      <point x="538" y="266"/>
      <point x="538" y="312" type="curve" smooth="yes"/>
      <point x="538" y="359"/>
      <point x="523" y="410"/>
      <point x="491" y="449" type="curve"/>
      <point x="552" y="509" type="line"/>
      <point x="505" y="556" type="line"/>
      <point x="445" y="495" type="line"/>
      <point x="405" y="527"/>
      <point x="357" y="542"/>
      <point x="310" y="542" type="curve" smooth="yes"/>
      <point x="260" y="542"/>
      <point x="211" y="525"/>
      <point x="172" y="494" type="curve"/>
      <point x="112" y="556" type="line"/>
      <point x="65" y="508" type="line"/>
      <point x="126" y="449" type="line"/>
      <point x="96" y="411"/>
      <point x="80" y="362"/>
      <point x="80" y="312" type="curve" smooth="yes"/>
      <point x="80" y="267"/>
      <point x="94" y="217"/>
      <point x="126" y="176" type="curve"/>
      <point x="65" y="116" type="line"/>
    </contour>
    <contour>
      <point x="308" y="148" type="curve" smooth="yes"/>
      <point x="219" y="148"/>
      <point x="144" y="219"/>
      <point x="144" y="311" type="curve" smooth="yes"/>
      <point x="144" y="402"/>
      <point x="218" y="477"/>
      <point x="308" y="477" type="curve" smooth="yes"/>
      <point x="397" y="477"/>
      <point x="473" y="402"/>
      <point x="473" y="313" type="curve" smooth="yes"/>
      <point x="473" y="224"/>
      <point x="399" y="148"/>
    </contour>
  </outline>
</glyph>
<glyph name="yen" format="2">
  <advance width="560"/>
  <unicode hex="00A5"/>
  <outline>
    <contour>
      <point x="238" y="0" type="line"/>
      <point x="326" y="0" type="line"/>
      <point x="326" y="109" type="line"/>
      <point x="496" y="109" type="line"/>
      <point x="496" y="177" type="line"/>
      <point x="326" y="177" type="line"/>
      <point x="326" y="264" type="line"/>
      <point x="496" y="264" type="line"/>
      <point x="496" y="333" type="line"/>
      <point x="363" y="333" type="line"/>
      <point x="559" y="697" type="line"/>
      <point x="464" y="697" type="line"/>
      <point x="280" y="351" type="line"/>
      <point x="98" y="697" type="line"/>
      <point x="3" y="697" type="line"/>
      <point x="201" y="333" type="line"/>
      <point x="65" y="333" type="line"/>
      <point x="65" y="264" type="line"/>
      <point x="238" y="264" type="line"/>
      <point x="238" y="177" type="line"/>
      <point x="65" y="177" type="line"/>
      <point x="65" y="109" type="line"/>
      <point x="238" y="109" type="line"/>
    </contour>
  </outline>
</glyph>
<glyph name="section" format="2">
  <advance width="577"/>
  <unicode hex="00A7"/>
  <outline>
    <contour>
      <point x="284" y="-200" type="curve" smooth="yes"/>
      <point x="396" y="-200"/>
      <point x="489" y="-130"/>
      <point x="489" y="-17" type="curve" smooth="yes"/>
      <point x="489" y="12"/>
      <point x="483" y="37"/>
      <point x="472" y="58" type="curve"/>
      <point x="507" y="94"/>
      <point x="527" y="143"/>
      <point x="527" y="196" type="curve" smooth="yes"/>
      <point x="527" y="322"/>
      <point x="421" y="364"/>
      <point x="328" y="400" type="curve" smooth="yes"/>
      <point x="254" y="428"/>
      <point x="177" y="455"/>
      <point x="177" y="526" type="curve" smooth="yes"/>
      <point x="177" y="585"/>
      <point x="225" y="627"/>
      <point x="290" y="627" type="curve" smooth="yes"/>
      <point x="350" y="627"/>
      <point x="394" y="597"/>
      <point x="422" y="545" type="curve"/>
      <point x="495" y="590" type="line"/>
      <point x="451" y="669"/>
      <point x="380" y="705"/>
      <point x="292" y="705" type="curve" smooth="yes"/>
      <point x="182" y="705"/>
      <point x="88" y="637"/>
      <point x="88" y="522" type="curve" smooth="yes"/>
      <point x="88" y="494"/>
      <point x="95" y="467"/>
      <point x="105" y="448" type="curve"/>
      <point x="71" y="413"/>
      <point x="50" y="366"/>
      <point x="50" y="311" type="curve" smooth="yes"/>
      <point x="50" y="184"/>
      <point x="158" y="142"/>
      <point x="249" y="107" type="curve" smooth="yes"/>
      <point x="323" y="78"/>
      <point x="401" y="51"/>
      <point x="401" y="-21" type="curve" smooth="yes"/>
      <point x="401" y="-79"/>
      <point x="352" y="-121"/>
      <point x="287" y="-121" type="curve" smooth="yes"/>
      <point x="232" y="-121"/>
      <point x="185" y="-95"/>
      <point x="155" y="-39" type="curve"/>
      <point x="82" y="-84" type="line"/>
      <point x="127" y="-165"/>
      <point x="200" y="-200"/>
    </contour>
    <contour>
      <point x="413" y="117" type="curve"/>
      <point x="379" y="147"/>
      <point x="333" y="162"/>
      <point x="296" y="177" type="curve" smooth="yes"/>
      <point x="214" y="209"/>
      <point x="138" y="239"/>
      <point x="138" y="319" type="curve" smooth="yes"/>
      <point x="138" y="343"/>
      <point x="146" y="370"/>
      <point x="164" y="389" type="curve"/>
      <point x="199" y="359"/>
      <point x="244" y="344"/>
      <point x="281" y="329" type="curve" smooth="yes"/>
      <point x="372" y="294"/>
      <point x="439" y="265"/>
      <point x="439" y="188" type="curve" smooth="yes"/>
      <point x="439" y="162"/>
      <point x="430" y="136"/>
    </contour>
  </outline>
</glyph>
<glyph name="ordfeminine" format="2">
  <advance width="499"/>
  <unicode hex="00AA"/>
  <outline>
    <contour>
      <point x="214" y="348" type="curve" smooth="yes"/>
      <point x="264" y="348"/>
      <point x="306" y="370"/>
      <point x="338" y="415" type="curve"/>
      <point x="339" y="355" type="line"/>
      <point x="384" y="355" type="line"/>
      <point x="384" y="566" type="line" smooth="yes"/>
      <point x="384" y="652"/>
      <point x="332" y="705"/>
      <point x="243" y="705" type="curve" smooth="yes"/>
      <point x="184" y="705"/>
      <point x="142" y="684"/>
      <point x="104" y="630" type="curve"/>
      <point x="143" y="603" type="line"/>
      <point x="166" y="636"/>
      <point x="196" y="659"/>
      <point x="245" y="659" type="curve" smooth="yes"/>
      <point x="299" y="659"/>
      <point x="328" y="631"/>
      <point x="334" y="581" type="curve" smooth="yes"/>
      <point x="335" y="573"/>
      <point x="335" y="562"/>
      <point x="335" y="558" type="curve"/>
      <point x="226" y="558" type="line" smooth="yes"/>
      <point x="150" y="558"/>
      <point x="92" y="525"/>
      <point x="92" y="455" type="curve" smooth="yes"/>
      <point x="92" y="389"/>
      <point x="143" y="348"/>
    </contour>
    <contour>
      <point x="225" y="395" type="curve" smooth="yes"/>
      <point x="176" y="395"/>
      <point x="146" y="418"/>
      <point x="146" y="453" type="curve" smooth="yes"/>
      <point x="146" y="490"/>
      <point x="176" y="512"/>
      <point x="229" y="512" type="curve" smooth="yes"/>
      <point x="335" y="512" type="line"/>
      <point x="334" y="493"/>
      <point x="331" y="476"/>
      <point x="327" y="458" type="curve"/>
      <point x="304" y="416"/>
      <point x="269" y="395"/>
    </contour>
  </outline>
</glyph>
<glyph name="logicalnot" format="2">
  <advance width="560"/>
  <unicode hex="00AC"/>
  <guideline x="692" y="505" angle="0" name=""/>
  <guideline x="686" y="484" angle="0" name=""/>
  <outline>
    <contour>
      <point x="408" y="15" type="line"/>
      <point x="475" y="15" type="line"/>
      <point x="475" y="281" type="line"/>
      <point x="29" y="281" type="line"/>
      <point x="29" y="214" type="line"/>
      <point x="408" y="214" type="line"/>
    </contour>
  </outline>
</glyph>
<glyph name="macron" format="2">
  <advance width="369"/>
  <unicode hex="00AF"/>
  <outline>
    <contour>
      <point x="49" y="589" type="line"/>
      <point x="320" y="589" type="line"/>
      <point x="320" y="640" type="line"/>
      <point x="49" y="640" type="line"/>
    </contour>
  </outline>
</glyph>
<glyph name="degree" format="2">
  <advance width="418"/>
  <unicode hex="00B0"/>
  <outline>
    <contour>
      <point x="209" y="420" type="curve" smooth="yes"/>
      <point x="287" y="420"/>
      <point x="352" y="484"/>
      <point x="352" y="563" type="curve" smooth="yes"/>
      <point x="352" y="641"/>
      <point x="287" y="705"/>
      <point x="209" y="705" type="curve" smooth="yes"/>
      <point x="131" y="705"/>
      <point x="66" y="641"/>
      <point x="66" y="563" type="curve" smooth="yes"/>
      <point x="66" y="484"/>
      <point x="131" y="420"/>
    </contour>
    <contour>
      <point x="209" y="478" type="curve" smooth="yes"/>
      <point x="162" y="478"/>
      <point x="124" y="516"/>
      <point x="124" y="563" type="curve" smooth="yes"/>
      <point x="124" y="610"/>
      <point x="162" y="647"/>
      <point x="209" y="647" type="curve" smooth="yes"/>
      <point x="256" y="647"/>
      <point x="294" y="610"/>
      <point x="294" y="563" type="curve" smooth="yes"/>
      <point x="294" y="516"/>
      <point x="256" y="478"/>
    </contour>
  </outline>
</glyph>
<glyph name="plusminus" format="2">
  <advance width="560"/>
  <unicode hex="00B1"/>
  <outline>
    <contour>
      <point x="246" y="120" type="line"/>
      <point x="314" y="120" type="line"/>
      <point x="314" y="288" type="line"/>
      <point x="528" y="288" type="line"/>
      <point x="528" y="356" type="line"/>
      <point x="314" y="356" type="line"/>
      <point x="314" y="522" type="line"/>
      <point x="246" y="522" type="line"/>
      <point x="246" y="356" type="line"/>
      <point x="32" y="356" type="line"/>
      <point x="32" y="288" type="line"/>
      <point x="246" y="288" type="line"/>
    </contour>
    <contour>
      <point x="32" y="-30" type="line"/>
      <point x="528" y="-30" type="line"/>
      <point x="528" y="38" type="line"/>
      <point x="32" y="38" type="line"/>
    </contour>
  </outline>
</glyph>
<glyph name="twosuperior" format="2">
  <advance width="418"/>
  <unicode hex="00B2"/>
  <outline>
    <contour>
      <point x="58" y="488" type="line"/>
      <point x="360" y="488" type="line"/>
      <point x="360" y="531" type="line"/>
      <point x="117" y="531" type="line"/>
      <point x="128" y="530" type="line"/>
      <point x="225" y="585"/>
      <point x="338" y="676"/>
      <point x="338" y="783" type="curve" smooth="yes"/>
      <point x="338" y="861"/>
      <point x="286" y="907"/>
      <point x="211" y="907" type="curve" smooth="yes"/>
      <point x="125" y="907"/>
      <point x="77" y="842"/>
      <point x="77" y="764" type="curve"/>
      <point x="123" y="760" type="line"/>
      <point x="124" y="821"/>
      <point x="154" y="864"/>
      <point x="211" y="864" type="curve" smooth="yes"/>
      <point x="264" y="864"/>
      <point x="291" y="831"/>
      <point x="291" y="784" type="curve" smooth="yes"/>
      <point x="291" y="675"/>
      <point x="151" y="587"/>
      <point x="58" y="529" type="curve"/>
    </contour>
  </outline>
</glyph>
<glyph name="micro" format="2">
  <advance width="547"/>
  <unicode hex="00B5"/>
  <outline>
    <contour>
      <point x="66" y="-169" type="line"/>
      <point x="150" y="-169" type="line"/>
      <point x="150" y="42" type="line"/>
      <point x="166" y="9"/>
      <point x="197" y="-8"/>
      <point x="240" y="-8" type="curve" smooth="yes"/>
      <point x="307" y="-8"/>
      <point x="360" y="22"/>
      <point x="390" y="77" type="curve"/>
      <point x="390" y="0" type="line"/>
      <point x="474" y="0" type="line"/>
      <point x="474" y="493" type="line"/>
      <point x="390" y="493" type="line"/>
      <point x="390" y="259" type="line" smooth="yes"/>
      <point x="390" y="149"/>
      <point x="359" y="66"/>
      <point x="265" y="66" type="curve" smooth="yes"/>
      <point x="179" y="66"/>
      <point x="150" y="122"/>
      <point x="150" y="201" type="curve" smooth="yes"/>
      <point x="150" y="493" type="line"/>
      <point x="66" y="493" type="line"/>
    </contour>
  </outline>
</glyph>
<glyph name="periodcentered" format="2">
  <advance width="334"/>
  <unicode hex="00B7"/>
  <outline>
    <contour>
      <point x="109" y="291" type="line"/>
      <point x="209" y="291" type="line"/>
      <point x="209" y="407" type="line"/>
      <point x="109" y="407" type="line"/>
    </contour>
  </outline>
</glyph>
<glyph name="onesuperior" format="2">
  <advance width="271"/>
  <unicode hex="00B9"/>
  <outline>
    <contour>
      <point x="144" y="488" type="line"/>
      <point x="190" y="488" type="line"/>
      <point x="190" y="902" type="line"/>
      <point x="146" y="902" type="line"/>
      <point x="146" y="869" type="line" smooth="yes"/>
      <point x="146" y="846"/>
      <point x="132" y="836"/>
      <point x="109" y="836" type="curve" smooth="yes"/>
      <point x="42" y="836" type="line"/>
      <point x="42" y="799" type="line"/>
      <point x="159" y="799" type="line"/>
      <point x="144" y="823" type="line"/>
    </contour>
  </outline>
</glyph>
<glyph name="AE" format="2">
  <advance width="896"/>
  <unicode hex="00C6"/>
  <anchor x="449" y="0" name="bottom"/>
  <anchor x="449" y="697" name="top"/>
  <outline>
    <contour>
      <point x="17" y="0" type="line"/>
      <point x="114" y="0" type="line"/>
      <point x="337" y="620" type="line"/>
      <point x="393" y="620" type="line"/>
      <point x="393" y="0" type="line"/>
      <point x="849" y="0" type="line"/>
      <point x="849" y="79" type="line"/>
      <point x="482" y="79" type="line"/>
      <point x="482" y="310" type="line"/>
      <point x="802" y="310" type="line"/>
      <point x="802" y="390" type="line"/>
      <point x="482" y="390" type="line"/>
      <point x="482" y="618" type="line"/>
      <point x="849" y="618" type="line"/>
      <point x="849" y="697" type="line"/>
      <point x="283" y="697" type="line"/>
    </contour>
    <contour>
      <point x="157" y="164" type="line"/>
      <point x="415" y="164" type="line"/>
      <point x="415" y="245" type="line"/>
      <point x="185" y="245" type="line"/>
    </contour>
  </outline>
</glyph>
<glyph name="multiply" format="2">
  <advance width="560"/>
  <unicode hex="00D7"/>
  <outline>
    <contour>
      <point x="126" y="41" type="line"/>
      <point x="278" y="194" type="line"/>
      <point x="433" y="41" type="line"/>
      <point x="485" y="93" type="line"/>
      <point x="332" y="246" type="line"/>
      <point x="485" y="400" type="line"/>
      <point x="433" y="453" type="line"/>
      <point x="278" y="299" type="line"/>
      <point x="125" y="453" type="line"/>
      <point x="73" y="401" type="line"/>
      <point x="227" y="246" type="line"/>
      <point x="74" y="93" type="line"/>
    </contour>
  </outline>
</glyph>
<glyph name="Thorn" format="2">
  <advance width="631"/>
  <unicode hex="00DE"/>
  <anchor x="313" y="0" name="bottom"/>
  <anchor x="313" y="697" name="top"/>
  <outline>
    <contour>
      <point x="129" y="0" type="line"/>
      <point x="210" y="0" type="line"/>
      <point x="210" y="203" type="line"/>
      <point x="327" y="203" type="line" smooth="yes"/>
      <point x="474" y="203"/>
      <point x="562" y="278"/>
      <point x="562" y="403" type="curve" smooth="yes"/>
      <point x="562" y="526"/>
      <point x="481" y="598"/>
      <point x="345" y="598" type="curve" smooth="yes"/>
      <point x="210" y="598" type="line"/>
      <point x="210" y="697" type="line"/>
      <point x="129" y="697" type="line"/>
    </contour>
    <contour>
      <point x="210" y="276" type="line"/>
      <point x="210" y="529" type="line"/>
      <point x="327" y="529" type="line" smooth="yes"/>
      <point x="423" y="529"/>
      <point x="481" y="486"/>
      <point x="481" y="401" type="curve" smooth="yes"/>
      <point x="481" y="318"/>
      <point x="424" y="276"/>
      <point x="327" y="276" type="curve" smooth="yes"/>
    </contour>
  </outline>
</glyph>
<glyph name="eth" format="2">
  <advance width="619"/>
  <unicode hex="00F0"/>
  <outline>
    <contour>
      <point x="285" y="-8" type="curve" smooth="yes"/>
      <point x="474" y="-8"/>
      <point x="573" y="153"/>
      <point x="573" y="368" type="curve" smooth="yes"/>
      <point x="573" y="584"/>
      <point x="495" y="710"/>
      <point x="217" y="724" type="curve"/>
      <point x="211" y="666" type="line"/>
      <point x="429" y="661"/>
      <point x="512" y="559"/>
      <point x="499" y="362" type="curve"/>
      <point x="481" y="435"/>
      <point x="425" y="498"/>
      <point x="336" y="498" type="curve" smooth="yes"/>
      <point x="185" y="498"/>
      <point x="64" y="383"/>
      <point x="64" y="215" type="curve" smooth="yes"/>
      <point x="64" y="85"/>
      <point x="148" y="-8"/>
    </contour>
    <contour>
      <point x="290" y="65" type="curve" smooth="yes"/>
      <point x="207" y="65"/>
      <point x="144" y="121"/>
      <point x="144" y="216" type="curve" smooth="yes"/>
      <point x="144" y="327"/>
      <point x="213" y="428"/>
      <point x="344" y="428" type="curve" smooth="yes"/>
      <point x="453" y="428"/>
      <point x="491" y="329"/>
      <point x="485" y="259" type="curve" smooth="yes"/>
      <point x="475" y="151"/>
      <point x="400" y="65"/>
    </contour>
    <contour>
      <point x="267" y="541" type="line"/>
      <point x="600" y="638" type="line"/>
      <point x="591" y="674" type="line"/>
      <point x="258" y="577" type="line"/>
    </contour>
  </outline>
</glyph>
<glyph name="idotless" format="2">
  <advance width="226"/>
  <unicode hex="0131"/>
  <anchor x="113" y="0" name="bottom"/>
  <anchor x="155" y="0" name="ogonek"/>
  <anchor x="113" y="493" name="top"/>
  <outline>
    <contour>
      <point x="71" y="0" type="line"/>
      <point x="155" y="0" type="line"/>
      <point x="155" y="493" type="line"/>
      <point x="71" y="493" type="line"/>
    </contour>
  </outline>
</glyph>
<glyph name="eng" format="2">
  <advance width="605"/>
  <unicode hex="014B"/>
  <guideline x="406" y="-204" angle="0" name=""/>
  <outline>
    <contour>
      <point x="412" y="-212" type="curve" smooth="yes"/>
      <point x="472" y="-212"/>
      <point x="512" y="-176"/>
      <point x="512" y="-95" type="curve" smooth="yes"/>
      <point x="512" y="328" type="line" smooth="yes"/>
      <point x="512" y="440"/>
      <point x="445" y="501"/>
      <point x="339" y="501" type="curve" smooth="yes"/>
      <point x="262" y="501"/>
      <point x="198" y="467"/>
      <point x="171" y="387" type="curve"/>
      <point x="188" y="369" type="line"/>
      <point x="188" y="493" type="line"/>
      <point x="103" y="493" type="line"/>
      <point x="103" y="0" type="line"/>
      <point x="188" y="0" type="line"/>
      <point x="188" y="242" type="line" smooth="yes"/>
      <point x="188" y="326"/>
      <point x="203" y="428"/>
      <point x="313" y="428" type="curve" smooth="yes"/>
      <point x="408" y="428"/>
      <point x="427" y="357"/>
      <point x="427" y="301" type="curve" smooth="yes"/>
      <point x="427" y="-84" type="line" smooth="yes"/>
      <point x="427" y="-124"/>
      <point x="412" y="-139"/>
      <point x="384" y="-139" type="curve" smooth="yes"/>
      <point x="375" y="-139"/>
      <point x="359" y="-137"/>
      <point x="341" y="-130" type="curve"/>
      <point x="341" y="-199" type="line"/>
      <point x="367" y="-208"/>
      <point x="389" y="-212"/>
    </contour>
  </outline>
</glyph>
<glyph name="OE" format="2">
  <advance width="1019"/>
  <unicode hex="0152"/>
  <anchor x="631" y="0" name="bottom"/>
  <anchor x="631" y="697" name="top"/>
  <outline>
    <contour>
      <point x="409" y="0" type="curve" smooth="yes"/>
      <point x="972" y="0" type="line"/>
      <point x="972" y="79" type="line"/>
      <point x="601" y="79" type="line"/>
      <point x="601" y="316" type="line"/>
      <point x="938" y="316" type="line"/>
      <point x="938" y="395" type="line"/>
      <point x="601" y="395" type="line"/>
      <point x="601" y="618" type="line"/>
      <point x="972" y="618" type="line"/>
      <point x="972" y="697" type="line"/>
      <point x="408" y="697" type="line" smooth="yes"/>
      <point x="180" y="697"/>
      <point x="50" y="568"/>
      <point x="50" y="343" type="curve" smooth="yes"/>
      <point x="50" y="122"/>
      <point x="177" y="0"/>
    </contour>
    <contour>
      <point x="418" y="81" type="line" smooth="yes"/>
      <point x="240" y="81"/>
      <point x="139" y="156"/>
      <point x="139" y="346" type="curve" smooth="yes"/>
      <point x="139" y="535"/>
      <point x="239" y="616"/>
      <point x="410" y="616" type="curve" smooth="yes"/>
      <point x="513" y="616" type="line"/>
      <point x="513" y="81" type="line"/>
    </contour>
  </outline>
</glyph>
<glyph name="Schwa" format="2">
  <advance width="749"/>
  <unicode hex="018F"/>
  <anchor x="367" y="0" name="bottom"/>
  <anchor x="367" y="697" name="top"/>
  <outline>
    <contour>
      <point x="374" y="-12" type="curve" smooth="yes"/>
      <point x="574" y="-12"/>
      <point x="698" y="126"/>
      <point x="698" y="350" type="curve" smooth="yes"/>
      <point x="698" y="574"/>
      <point x="573" y="710"/>
      <point x="372" y="710" type="curve" smooth="yes"/>
      <point x="227" y="710"/>
      <point x="126" y="641"/>
      <point x="77" y="515" type="curve"/>
      <point x="158" y="483" type="line"/>
      <point x="194" y="582"/>
      <point x="268" y="626"/>
      <point x="372" y="626" type="curve" smooth="yes"/>
      <point x="524" y="626"/>
      <point x="610" y="528"/>
      <point x="610" y="351" type="curve" smooth="yes"/>
      <point x="610" y="174"/>
      <point x="524" y="72"/>
      <point x="374" y="72" type="curve" smooth="yes"/>
      <point x="225" y="72"/>
      <point x="138" y="174"/>
      <point x="138" y="351" type="curve"/>
      <point x="50" y="351" type="line"/>
      <point x="50" y="126"/>
      <point x="174" y="-12"/>
    </contour>
    <contour>
      <point x="95" y="283" type="line"/>
      <point x="676" y="283" type="line"/>
      <point x="676" y="351" type="line"/>
      <point x="95" y="351" type="line"/>
    </contour>
  </outline>
</glyph>
<glyph name="florin" format="2">
  <advance width="560"/>
  <unicode hex="0192"/>
  <outline>
    <contour>
      <point x="87" y="-221" type="line"/>
      <point x="223" y="-221"/>
      <point x="297" y="-159"/>
      <point x="297" y="-19" type="curve" smooth="yes"/>
      <point x="297" y="429" type="line"/>
      <point x="424" y="429" type="line"/>
      <point x="424" y="493" type="line"/>
      <point x="297" y="493" type="line"/>
      <point x="297" y="551" type="line" smooth="yes"/>
      <point x="297" y="607"/>
      <point x="322" y="639"/>
      <point x="365" y="639" type="curve" smooth="yes"/>
      <point x="385" y="639"/>
      <point x="409" y="629"/>
      <point x="429" y="609" type="curve"/>
      <point x="475" y="664" type="line"/>
      <point x="444" y="695"/>
      <point x="403" y="710"/>
      <point x="356" y="710" type="curve" smooth="yes"/>
      <point x="273" y="710"/>
      <point x="225" y="646"/>
      <point x="225" y="557" type="curve" smooth="yes"/>
      <point x="225" y="493" type="line"/>
      <point x="140" y="493" type="line"/>
      <point x="140" y="429" type="line"/>
      <point x="225" y="429" type="line"/>
      <point x="225" y="-12" type="line" smooth="yes"/>
      <point x="225" y="-119"/>
      <point x="188" y="-156"/>
      <point x="87" y="-156" type="curve"/>
    </contour>
  </outline>
</glyph>
<glyph name="Nhookleft" format="2">
  <advance width="676"/>
  <unicode hex="019D"/>
  <anchor x="334" y="0" name="bottom"/>
  <anchor x="334" y="697" name="top"/>
  <outline>
    <contour>
      <point x="79" y="0" type="line"/>
      <point x="167" y="0" type="line"/>
      <point x="167" y="575" type="line"/>
      <point x="149" y="575" type="line"/>
      <point x="502" y="0" type="line"/>
      <point x="597" y="0" type="line"/>
      <point x="597" y="697" type="line"/>
      <point x="509" y="697" type="line"/>
      <point x="509" y="124" type="line"/>
      <point x="526" y="124" type="line"/>
      <point x="172" y="697" type="line"/>
      <point x="79" y="697" type="line"/>
    </contour>
    <contour>
      <point x="-8" y="-175" type="line"/>
      <point x="117" y="-175"/>
      <point x="167" y="-108"/>
      <point x="167" y="-27" type="curve" smooth="yes"/>
      <point x="167" y="0" type="line"/>
      <point x="79" y="0" type="line"/>
      <point x="79" y="-12"/>
      <point x="79" y="-19"/>
      <point x="79" y="-33" type="curve" smooth="yes"/>
      <point x="79" y="-73"/>
      <point x="58" y="-116"/>
      <point x="-8" y="-116" type="curve"/>
    </contour>
  </outline>
</glyph>
<glyph name="caron" format="2">
  <advance width="400"/>
  <unicode hex="02C7"/>
  <outline>
    <contour>
      <point x="200" y="541" type="line"/>
      <point x="351" y="697" type="line"/>
      <point x="283" y="697" type="line"/>
      <point x="200" y="611" type="line"/>
      <point x="117" y="697" type="line"/>
      <point x="49" y="697" type="line"/>
    </contour>
  </outline>
</glyph>
<glyph name="breve" format="2">
  <advance width="402"/>
  <unicode hex="02D8"/>
  <outline>
    <contour>
      <point x="201" y="566" type="curve" smooth="yes"/>
      <point x="301" y="566"/>
      <point x="353" y="610"/>
      <point x="353" y="697" type="curve"/>
      <point x="293" y="697" type="line"/>
      <point x="293" y="645"/>
      <point x="257" y="617"/>
      <point x="201" y="617" type="curve" smooth="yes"/>
      <point x="146" y="617"/>
      <point x="110" y="644"/>
      <point x="110" y="697" type="curve"/>
      <point x="49" y="697" type="line"/>
      <point x="49" y="613"/>
      <point x="98" y="566"/>
    </contour>
  </outline>
</glyph>
<glyph name="tilde" format="2">
  <advance width="420"/>
  <unicode hex="02DC"/>
  <outline>
    <contour>
      <point x="277" y="567" type="curve" smooth="yes"/>
      <point x="334" y="567"/>
      <point x="371" y="615"/>
      <point x="371" y="697" type="curve"/>
      <point x="319" y="697" type="line"/>
      <point x="319" y="649"/>
      <point x="301" y="619"/>
      <point x="278" y="619" type="curve" smooth="yes"/>
      <point x="229" y="619"/>
      <point x="219" y="701"/>
      <point x="146" y="701" type="curve" smooth="yes"/>
      <point x="86" y="701"/>
      <point x="49" y="654"/>
      <point x="49" y="573" type="curve"/>
      <point x="99" y="573" type="line"/>
      <point x="99" y="618"/>
      <point x="114" y="648"/>
      <point x="142" y="647" type="curve"/>
      <point x="191" y="648"/>
      <point x="196" y="567"/>
    </contour>
  </outline>
</glyph>
<glyph name="gravecomb" format="2">
  <advance width="292"/>
  <unicode hex="0300"/>
  <anchor x="211" y="493" name="_top"/>
  <anchor x="146" y="697" name="top"/>
  <outline>
    <contour>
      <point x="179" y="556" type="line"/>
      <point x="243" y="556" type="line"/>
      <point x="139" y="697" type="line"/>
      <point x="49" y="697" type="line"/>
    </contour>
  </outline>
</glyph>
<glyph name="macroncomb" format="2">
  <advance width="369"/>
  <unicode hex="0304"/>
  <anchor x="185" y="493" name="_top"/>
  <anchor x="185" y="640" name="top"/>
  <outline>
    <contour>
      <point x="49" y="589" type="line"/>
      <point x="320" y="589" type="line"/>
      <point x="320" y="640" type="line"/>
      <point x="49" y="640" type="line"/>
    </contour>
  </outline>
</glyph>
<glyph name="dieresiscomb" format="2">
  <advance width="383"/>
  <unicode hex="0308"/>
  <anchor x="191" y="493" name="_top"/>
  <anchor x="191" y="697" name="top"/>
  <outline>
    <contour>
      <point x="285" y="596" type="curve" smooth="yes"/>
      <point x="316" y="596"/>
      <point x="340" y="621"/>
      <point x="340" y="651" type="curve" smooth="yes"/>
      <point x="340" y="681"/>
      <point x="316" y="705"/>
      <point x="285" y="705" type="curve" smooth="yes"/>
      <point x="255" y="705"/>
      <point x="231" y="681"/>
      <point x="231" y="651" type="curve" smooth="yes"/>
      <point x="231" y="621"/>
      <point x="256" y="596"/>
    </contour>
    <contour>
      <point x="103" y="596" type="curve" smooth="yes"/>
      <point x="133" y="596"/>
      <point x="158" y="621"/>
      <point x="158" y="651" type="curve" smooth="yes"/>
      <point x="158" y="681"/>
      <point x="133" y="705"/>
      <point x="103" y="705" type="curve" smooth="yes"/>
      <point x="72" y="705"/>
      <point x="49" y="681"/>
      <point x="49" y="651" type="curve" smooth="yes"/>
      <point x="49" y="621"/>
      <point x="74" y="596"/>
    </contour>
  </outline>
</glyph>
<glyph name="hungarumlautcomb" format="2">
  <advance width="474"/>
  <unicode hex="030B"/>
  <anchor x="169" y="493" name="_top"/>
  <anchor x="238" y="697" name="top"/>
  <outline>
    <contour>
      <point x="225" y="542" type="line"/>
      <point x="289" y="542" type="line"/>
      <point x="425" y="697" type="line"/>
      <point x="335" y="697" type="line"/>
    </contour>
    <contour>
      <point x="49" y="542" type="line"/>
      <point x="112" y="542" type="line"/>
      <point x="235" y="697" type="line"/>
      <point x="158" y="697" type="line"/>
    </contour>
  </outline>
</glyph>
<glyph name="dblgravecomb" format="2">
  <advance width="474"/>
  <unicode hex="030F"/>
  <anchor x="304" y="493" name="_top"/>
  <anchor x="238" y="697" name="top"/>
  <outline>
    <contour>
      <point x="184" y="542" type="line"/>
      <point x="248" y="542" type="line"/>
      <point x="139" y="697" type="line"/>
      <point x="49" y="697" type="line"/>
    </contour>
    <contour>
      <point x="361" y="542" type="line"/>
      <point x="425" y="542" type="line"/>
      <point x="316" y="697" type="line"/>
      <point x="239" y="697" type="line"/>
    </contour>
  </outline>
</glyph>
<glyph name="cedillacomb" format="2">
  <advance width="293"/>
  <unicode hex="0327"/>
  <anchor x="162" y="0" name="_bottom"/>
  <anchor x="147" y="-204" name="bottom"/>
  <outline>
    <contour>
      <point x="143" y="-204" type="curve" smooth="yes"/>
      <point x="197" y="-204"/>
      <point x="244" y="-175"/>
      <point x="244" y="-121" type="curve" smooth="yes"/>
      <point x="244" y="-74"/>
      <point x="198" y="-54"/>
      <point x="148" y="-46" type="curve"/>
      <point x="194" y="8" type="line"/>
      <point x="141" y="8" type="line"/>
      <point x="78" y="-78" type="line"/>
      <point x="127" y="-79"/>
      <point x="192" y="-84"/>
      <point x="192" y="-123" type="curve" smooth="yes"/>
      <point x="192" y="-148"/>
      <point x="169" y="-160"/>
      <point x="142" y="-160" type="curve" smooth="yes"/>
      <point x="120" y="-160"/>
      <point x="96" y="-152"/>
      <point x="78" y="-136" type="curve"/>
      <point x="49" y="-170" type="line"/>
      <point x="73" y="-193"/>
      <point x="110" y="-204"/>
    </contour>
  </outline>
</glyph>
<glyph name="tonos" format="2">
  <advance width="237"/>
  <unicode hex="0384"/>
  <anchor x="81" y="493" name="_top"/>
  <outline>
    <contour>
      <point x="49" y="556" type="line"/>
      <point x="111" y="556" type="line"/>
      <point x="188" y="697" type="line"/>
      <point x="108" y="697" type="line"/>
    </contour>
  </outline>
</glyph>
<glyph name="pi" format="2">
  <advance width="580"/>
  <unicode hex="03C0"/>
  <outline>
    <contour>
      <point x="495" y="-8" type="curve" smooth="yes"/>
      <point x="518" y="-8"/>
      <point x="538" y="-4"/>
      <point x="561" y="10" type="curve"/>
      <point x="546" y="78" type="line"/>
      <point x="537" y="74"/>
      <point x="526" y="70"/>
      <point x="514" y="70" type="curve" smooth="yes"/>
      <point x="474" y="70"/>
      <point x="455" y="94"/>
      <point x="455" y="157" type="curve" smooth="yes"/>
      <point x="455" y="422" type="line"/>
      <point x="537" y="422" type="line"/>
      <point x="537" y="493" type="line"/>
      <point x="48" y="493" type="line"/>
      <point x="48" y="422" type="line"/>
      <point x="111" y="422" type="line"/>
      <point x="111" y="0" type="line"/>
      <point x="195" y="0" type="line"/>
      <point x="195" y="422" type="line"/>
      <point x="371" y="422" type="line"/>
      <point x="371" y="130" type="line" smooth="yes"/>
      <point x="371" y="36"/>
      <point x="411" y="-8"/>
    </contour>
  </outline>
</glyph>
<glyph name="quotesinglbase" format="2">
  <advance width="288"/>
  <unicode hex="201A"/>
  <outline>
    <contour>
      <point x="50" y="-154" type="line"/>
      <point x="107" y="-154" type="line"/>
      <point x="238" y="130" type="line"/>
      <point x="140" y="130" type="line"/>
    </contour>
  </outline>
</glyph>
<glyph name="quotedblleft" format="2">
  <advance width="436"/>
  <unicode hex="201C"/>
  <outline>
    <contour>
      <point x="210" y="414" type="line"/>
      <point x="308" y="414" type="line"/>
      <point x="397" y="697" type="line"/>
      <point x="339" y="697" type="line"/>
    </contour>
    <contour>
      <point x="34" y="414" type="line"/>
      <point x="132" y="414" type="line"/>
      <point x="222" y="697" type="line"/>
      <point x="165" y="697" type="line"/>
    </contour>
  </outline>
</glyph>
<glyph name="daggerdbl" format="2">
  <advance width="397"/>
  <unicode hex="2021"/>
  <outline>
    <contour>
      <point x="167" y="-101" type="line"/>
      <point x="231" y="-101" type="line"/>
      <point x="231" y="102" type="line"/>
      <point x="355" y="102" type="line"/>
      <point x="355" y="166" type="line"/>
      <point x="231" y="166" type="line"/>
      <point x="231" y="431" type="line"/>
      <point x="355" y="431" type="line"/>
      <point x="355" y="494" type="line"/>
      <point x="231" y="494" type="line"/>
      <point x="231" y="697" type="line"/>
      <point x="167" y="697" type="line"/>
      <point x="167" y="494" type="line"/>
      <point x="42" y="494" type="line"/>
      <point x="42" y="431" type="line"/>
      <point x="167" y="431" type="line"/>
      <point x="167" y="166" type="line"/>
      <point x="42" y="166" type="line"/>
      <point x="42" y="102" type="line"/>
      <point x="167" y="102" type="line"/>
    </contour>
  </outline>
</glyph>
<glyph name="perthousand" format="2">
  <advance width="1034"/>
  <unicode hex="2030"/>
  <outline>
    <contour>
      <point x="129" y="0" type="line"/>
      <point x="190" y="0" type="line"/>
      <point x="592" y="697" type="line"/>
      <point x="531" y="697" type="line"/>
    </contour>
    <contour>
      <point x="538" y="-8" type="curve" smooth="yes"/>
      <point x="615" y="-8"/>
      <point x="671" y="61"/>
      <point x="671" y="150" type="curve" smooth="yes"/>
      <point x="671" y="240"/>
      <point x="613" y="309"/>
      <point x="535" y="309" type="curve" smooth="yes"/>
      <point x="449" y="309"/>
      <point x="401" y="233"/>
      <point x="401" y="150" type="curve" smooth="yes"/>
      <point x="401" y="67"/>
      <point x="451" y="-8"/>
    </contour>
    <contour>
      <point x="538" y="50" type="curve" smooth="yes"/>
      <point x="485" y="50"/>
      <point x="460" y="97"/>
      <point x="460" y="150" type="curve" smooth="yes"/>
      <point x="460" y="202"/>
      <point x="483" y="250"/>
      <point x="535" y="250" type="curve" smooth="yes"/>
      <point x="584" y="250"/>
      <point x="612" y="205"/>
      <point x="612" y="150" type="curve" smooth="yes"/>
      <point x="612" y="91"/>
      <point x="581" y="50"/>
    </contour>
    <contour>
      <point x="188" y="389" type="curve" smooth="yes"/>
      <point x="265" y="389"/>
      <point x="320" y="458"/>
      <point x="320" y="546" type="curve" smooth="yes"/>
      <point x="320" y="638"/>
      <point x="263" y="705"/>
      <point x="185" y="705" type="curve" smooth="yes"/>
      <point x="100" y="705"/>
      <point x="51" y="630"/>
      <point x="51" y="547" type="curve" smooth="yes"/>
      <point x="51" y="465"/>
      <point x="100" y="389"/>
    </contour>
    <contour>
      <point x="188" y="447" type="curve" smooth="yes"/>
      <point x="134" y="447"/>
      <point x="109" y="495"/>
      <point x="109" y="547" type="curve" smooth="yes"/>
      <point x="109" y="600"/>
      <point x="133" y="647"/>
      <point x="185" y="647" type="curve" smooth="yes"/>
      <point x="234" y="647"/>
      <point x="262" y="602"/>
      <point x="262" y="546" type="curve" smooth="yes"/>
      <point x="262" y="489"/>
      <point x="231" y="447"/>
    </contour>
    <contour>
      <point x="850" y="-8" type="curve" smooth="yes"/>
      <point x="927" y="-8"/>
      <point x="983" y="60"/>
      <point x="983" y="150" type="curve" smooth="yes"/>
      <point x="983" y="240"/>
      <point x="926" y="309"/>
      <point x="847" y="309" type="curve" smooth="yes"/>
      <point x="763" y="309"/>
      <point x="714" y="233"/>
      <point x="714" y="150" type="curve" smooth="yes"/>
      <point x="714" y="68"/>
      <point x="763" y="-8"/>
    </contour>
    <contour>
      <point x="850" y="50" type="curve" smooth="yes"/>
      <point x="797" y="50"/>
      <point x="772" y="98"/>
      <point x="772" y="150" type="curve" smooth="yes"/>
      <point x="772" y="202"/>
      <point x="796" y="250"/>
      <point x="847" y="250" type="curve" smooth="yes"/>
      <point x="897" y="250"/>
      <point x="925" y="205"/>
      <point x="925" y="150" type="curve" smooth="yes"/>
      <point x="925" y="91"/>
      <point x="893" y="50"/>
    </contour>
  </outline>
</glyph>
<glyph name="guilsinglright" format="2">
  <advance width="246"/>
  <unicode hex="203A"/>
  <outline>
    <contour>
      <point x="14" y="60" type="line"/>
      <point x="242" y="253" type="line"/>
      <point x="14" y="445" type="line"/>
      <point x="14" y="354" type="line"/>
      <point x="141" y="253" type="line"/>
      <point x="14" y="151" type="line"/>
    </contour>
  </outline>
</glyph>
<glyph name="austral" format="2">
  <advance width="560"/>
  <unicode hex="20B3"/>
  <outline>
    <contour>
      <point x="17" y="0" type="line"/>
      <point x="114" y="0" type="line"/>
      <point x="281" y="571" type="line"/>
      <point x="446" y="0" type="line"/>
      <point x="543" y="0" type="line"/>
      <point x="315" y="697" type="line"/>
      <point x="246" y="697" type="line"/>
    </contour>
    <contour>
      <point x="3" y="154" type="line"/>
      <point x="556" y="154" type="line"/>
      <point x="556" y="212" type="line"/>
      <point x="4" y="212" type="line"/>
    </contour>
    <contour>
      <point x="4" y="307" type="line"/>
      <point x="555" y="307" type="line"/>
      <point x="555" y="365" type="line"/>
      <point x="4" y="365" type="line"/>
    </contour>
  </outline>
</glyph>
<glyph name="hryvnia" format="2">
  <advance width="560"/>
  <unicode hex="20B4"/>
  <outline>
    <contour>
      <point x="287" y="-11" type="curve" smooth="yes"/>
      <point x="406" y="-11"/>
      <point x="494" y="49"/>
      <point x="526" y="153" type="curve"/>
      <point x="444" y="187" type="line"/>
      <point x="425" y="113"/>
      <point x="368" y="68"/>
      <point x="284" y="68" type="curve" smooth="yes"/>
      <point x="203" y="68"/>
      <point x="143" y="116"/>
      <point x="143" y="192" type="curve" smooth="yes"/>
      <point x="143" y="228"/>
      <point x="157" y="257"/>
      <point x="186" y="285" type="curve"/>
      <point x="81" y="281" type="line"/>
      <point x="65" y="257"/>
      <point x="56" y="230"/>
      <point x="56" y="195" type="curve" smooth="yes"/>
      <point x="56" y="74"/>
      <point x="150" y="-11"/>
    </contour>
    <contour>
      <point x="19" y="267" type="line"/>
      <point x="531" y="267" type="line"/>
      <point x="531" y="322" type="line"/>
      <point x="19" y="322" type="line"/>
    </contour>
    <contour>
      <point x="19" y="400" type="line"/>
      <point x="531" y="400" type="line"/>
      <point x="531" y="456" type="line"/>
      <point x="19" y="456" type="line"/>
    </contour>
    <contour>
      <point x="327" y="432" type="curve"/>
      <point x="443" y="432" type="line"/>
      <point x="468" y="455"/>
      <point x="489" y="484"/>
      <point x="489" y="527" type="curve" smooth="yes"/>
      <point x="489" y="632"/>
      <point x="405" y="709"/>
      <point x="284" y="709" type="curve" smooth="yes"/>
      <point x="192" y="709"/>
      <point x="125" y="670"/>
      <point x="82" y="590" type="curve"/>
      <point x="152" y="547" type="line"/>
      <point x="185" y="604"/>
      <point x="229" y="631"/>
      <point x="288" y="631" type="curve" smooth="yes"/>
      <point x="351" y="631"/>
      <point x="401" y="587"/>
      <point x="401" y="529" type="curve" smooth="yes"/>
      <point x="401" y="486"/>
      <point x="375" y="458"/>
    </contour>
  </outline>
</glyph>
<glyph name="ruble" format="2">
  <advance width="560"/>
  <unicode hex="20BD"/>
  <outline>
    <contour>
      <point x="111" y="0" type="line"/>
      <point x="198" y="0" type="line"/>
      <point x="198" y="144" type="line"/>
      <point x="360" y="144" type="line"/>
      <point x="360" y="216" type="line"/>
      <point x="198" y="216" type="line"/>
      <point x="198" y="307" type="line"/>
      <point x="315" y="307" type="line" smooth="yes"/>
      <point x="461" y="307"/>
      <point x="550" y="370"/>
      <point x="550" y="497" type="curve" smooth="yes"/>
      <point x="550" y="622"/>
      <point x="462" y="697"/>
      <point x="315" y="697" type="curve" smooth="yes"/>
      <point x="111" y="697" type="line"/>
      <point x="111" y="382" type="line"/>
      <point x="22" y="382" type="line"/>
      <point x="22" y="307" type="line"/>
      <point x="111" y="307" type="line"/>
      <point x="111" y="216" type="line"/>
      <point x="22" y="216" type="line"/>
      <point x="22" y="144" type="line"/>
      <point x="111" y="144" type="line"/>
    </contour>
    <contour>
      <point x="198" y="382" type="line"/>
      <point x="198" y="615" type="line"/>
      <point x="315" y="615" type="line" smooth="yes"/>
      <point x="393" y="615"/>
      <point x="463" y="583"/>
      <point x="463" y="498" type="curve" smooth="yes"/>
      <point x="463" y="412"/>
      <point x="394" y="382"/>
      <point x="315" y="382" type="curve" smooth="yes"/>
    </contour>
  </outline>
</glyph>
<glyph name="trademark" format="2">
  <advance width="701"/>
  <unicode hex="2122"/>
  <outline>
    <contour>
      <point x="338" y="379" type="line"/>
      <point x="382" y="379" type="line"/>
      <point x="382" y="652" type="line"/>
      <point x="478" y="405" type="line"/>
      <point x="507" y="405" type="line"/>
      <point x="602" y="648" type="line"/>
      <point x="602" y="379" type="line"/>
      <point x="647" y="379" type="line"/>
      <point x="647" y="697" type="line"/>
      <point x="576" y="697" type="line"/>
      <point x="493" y="470" type="line"/>
      <point x="410" y="697" type="line"/>
      <point x="338" y="697" type="line"/>
    </contour>
    <contour>
      <point x="129" y="379" type="line"/>
      <point x="174" y="379" type="line"/>
      <point x="174" y="656" type="line"/>
      <point x="267" y="656" type="line"/>
      <point x="267" y="697" type="line"/>
      <point x="35" y="697" type="line"/>
      <point x="35" y="656" type="line"/>
      <point x="129" y="656" type="line"/>
    </contour>
  </outline>
</glyph>
<glyph name="Ohm" format="2">
  <advance width="772"/>
  <unicode hex="2126"/>
  <outline>
    <contour>
      <point x="72" y="0" type="line"/>
      <point x="331" y="0" type="line"/>
      <point x="331" y="89" type="line"/>
      <point x="218" y="147"/>
      <point x="153" y="242"/>
      <point x="153" y="374" type="curve" smooth="yes"/>
      <point x="153" y="526"/>
      <point x="238" y="625"/>
      <point x="386" y="625" type="curve" smooth="yes"/>
      <point x="532" y="625"/>
      <point x="617" y="527"/>
      <point x="617" y="375" type="curve" smooth="yes"/>
      <point x="617" y="251"/>
      <point x="560" y="154"/>
      <point x="441" y="89" type="curve"/>
      <point x="441" y="0" type="line"/>
      <point x="700" y="0" type="line"/>
      <point x="700" y="83" type="line"/>
      <point x="533" y="83" type="line"/>
      <point x="515" y="81" type="line"/>
      <point x="638" y="146"/>
      <point x="710" y="250"/>
      <point x="710" y="389" type="curve" smooth="yes"/>
      <point x="710" y="574"/>
      <point x="577" y="709"/>
      <point x="385" y="709" type="curve" smooth="yes"/>
      <point x="193" y="709"/>
      <point x="62" y="575"/>
      <point x="62" y="388" type="curve" smooth="yes"/>
      <point x="62" y="254"/>
      <point x="127" y="146"/>
      <point x="256" y="81" type="curve"/>
      <point x="238" y="83" type="line"/>
      <point x="72" y="83" type="line"/>
    </contour>
  </outline>
</glyph>
<glyph name="partialdiff" format="2">
  <advance width="626"/>
  <unicode hex="2202"/>
  <outline>
    <contour>
      <point x="272" y="-5" type="curve" smooth="yes"/>
      <point x="462" y="-5"/>
      <point x="562" y="162"/>
      <point x="562" y="369" type="curve" smooth="yes"/>
      <point x="562" y="586"/>
      <point x="477" y="704"/>
      <point x="322" y="704" type="curve" smooth="yes"/>
      <point x="220" y="704"/>
      <point x="145" y="653"/>
      <point x="113" y="571" type="curve"/>
      <point x="176" y="550" type="line"/>
      <point x="203" y="616"/>
      <point x="262" y="641"/>
      <point x="320" y="641" type="curve" smooth="yes"/>
      <point x="411" y="641"/>
      <point x="469" y="582"/>
      <point x="482" y="440" type="curve" smooth="yes"/>
      <point x="486" y="400"/>
      <point x="489" y="400"/>
      <point x="488" y="367" type="curve"/>
      <point x="469" y="438"/>
      <point x="417" y="501"/>
      <point x="325" y="501" type="curve" smooth="yes"/>
      <point x="175" y="501"/>
      <point x="53" y="386"/>
      <point x="53" y="218" type="curve" smooth="yes"/>
      <point x="53" y="88"/>
      <point x="138" y="-5"/>
    </contour>
    <contour>
      <point x="279" y="68" type="curve" smooth="yes"/>
      <point x="194" y="68"/>
      <point x="133" y="124"/>
      <point x="133" y="218" type="curve" smooth="yes"/>
      <point x="133" y="330"/>
      <point x="203" y="431"/>
      <point x="333" y="431" type="curve" smooth="yes"/>
      <point x="438" y="431"/>
      <point x="479" y="336"/>
      <point x="475" y="259" type="curve"/>
      <point x="464" y="166"/>
      <point x="401" y="68"/>
    </contour>
  </outline>
</glyph>
<glyph name="product" format="2">
  <advance width="574"/>
  <unicode hex="220F"/>
  <outline>
    <contour>
      <point x="86" y="0" type="line"/>
      <point x="158" y="0" type="line"/>
      <point x="158" y="626" type="line"/>
      <point x="415" y="626" type="line"/>
      <point x="415" y="0" type="line"/>
      <point x="487" y="0" type="line"/>
      <point x="487" y="626" type="line"/>
      <point x="535" y="626" type="line"/>
      <point x="535" y="697" type="line"/>
      <point x="38" y="697" type="line"/>
      <point x="38" y="626" type="line"/>
      <point x="86" y="626" type="line"/>
    </contour>
  </outline>
</glyph>
<glyph name="minus" format="2">
  <advance width="560"/>
  <unicode hex="2212"/>
  <outline>
    <contour>
      <point x="91" y="214" type="line"/>
      <point x="469" y="214" type="line"/>
      <point x="469" y="281" type="line"/>
      <point x="91" y="281" type="line"/>
    </contour>
  </outline>
</glyph>
<glyph name="radical" format="2">
  <advance width="604"/>
  <unicode hex="221A"/>
  <outline>
    <contour>
      <point x="245" y="-85" type="line"/>
      <point x="566" y="697" type="line"/>
      <point x="490" y="697" type="line"/>
      <point x="249" y="99" type="line"/>
      <point x="163" y="344" type="line"/>
      <point x="36" y="344" type="line"/>
      <point x="36" y="272" type="line"/>
      <point x="111" y="272" type="line"/>
    </contour>
  </outline>
</glyph>
<glyph name="infinity" format="2">
  <advance width="869"/>
  <unicode hex="221E"/>
  <outline>
    <contour>
      <point x="222" y="163" type="curve" smooth="yes"/>
      <point x="298" y="163"/>
      <point x="375" y="213"/>
      <point x="433" y="290" type="curve"/>
      <point x="493" y="213"/>
      <point x="571" y="163"/>
      <point x="647" y="163" type="curve" smooth="yes"/>
      <point x="763" y="163"/>
      <point x="839" y="243"/>
      <point x="839" y="349" type="curve" smooth="yes"/>
      <point x="839" y="455"/>
      <point x="763" y="534"/>
      <point x="647" y="534" type="curve" smooth="yes"/>
      <point x="573" y="534"/>
      <point x="495" y="487"/>
      <point x="433" y="407" type="curve"/>
      <point x="371" y="491"/>
      <point x="293" y="534"/>
      <point x="222" y="534" type="curve" smooth="yes"/>
      <point x="105" y="534"/>
      <point x="30" y="455"/>
      <point x="30" y="349" type="curve" smooth="yes"/>
      <point x="30" y="242"/>
      <point x="106" y="163"/>
    </contour>
    <contour>
      <point x="231" y="232" type="curve" smooth="yes"/>
      <point x="158" y="232"/>
      <point x="106" y="279"/>
      <point x="106" y="349" type="curve" smooth="yes"/>
      <point x="106" y="418"/>
      <point x="158" y="466"/>
      <point x="231" y="466" type="curve" smooth="yes"/>
      <point x="280" y="466"/>
      <point x="343" y="431"/>
      <point x="394" y="349" type="curve"/>
      <point x="346" y="271"/>
      <point x="284" y="232"/>
    </contour>
    <contour>
      <point x="636" y="232" type="curve" smooth="yes"/>
      <point x="584" y="232"/>
      <point x="523" y="271"/>
      <point x="471" y="349" type="curve"/>
      <point x="524" y="427"/>
      <point x="585" y="466"/>
      <point x="636" y="466" type="curve" smooth="yes"/>
      <point x="710" y="466"/>
      <point x="763" y="418"/>
      <point x="763" y="349" type="curve" smooth="yes"/>
      <point x="763" y="279"/>
      <point x="710" y="232"/>
    </contour>
  </outline>
</glyph>
<glyph name="approxequal" format="2">
  <advance width="560"/>
  <unicode hex="2248"/>
  <outline>
    <contour>
      <point x="367" y="272" type="curve" smooth="yes"/>
      <point x="443" y="272"/>
      <point x="493" y="339"/>
      <point x="493" y="437" type="curve"/>
      <point x="425" y="437" type="line"/>
      <point x="425" y="377"/>
      <point x="402" y="333"/>
      <point x="367" y="333" type="curve" smooth="yes"/>
      <point x="300" y="333"/>
      <point x="306" y="451"/>
      <point x="191" y="451" type="curve" smooth="yes"/>
      <point x="116" y="451"/>
      <point x="67" y="390"/>
      <point x="67" y="298" type="curve"/>
      <point x="135" y="298" type="line"/>
      <point x="135" y="353"/>
      <point x="156" y="391"/>
      <point x="191" y="391" type="curve" smooth="yes"/>
      <point x="263" y="391"/>
      <point x="256" y="272"/>
    </contour>
    <contour>
      <point x="367" y="42" type="curve" smooth="yes"/>
      <point x="443" y="42"/>
      <point x="493" y="111"/>
      <point x="493" y="209" type="curve"/>
      <point x="425" y="209" type="line"/>
      <point x="425" y="147"/>
      <point x="401" y="104"/>
      <point x="367" y="104" type="curve" smooth="yes"/>
      <point x="300" y="104"/>
      <point x="306" y="222"/>
      <point x="191" y="222" type="curve" smooth="yes"/>
      <point x="116" y="222"/>
      <point x="67" y="160"/>
      <point x="67" y="68" type="curve"/>
      <point x="135" y="68" type="line"/>
      <point x="135" y="124"/>
      <point x="156" y="161"/>
      <point x="191" y="161" type="curve" smooth="yes"/>
      <point x="263" y="161"/>
      <point x="256" y="42"/>
    </contour>
  </outline>
</glyph>
<glyph name="notequal" format="2">
  <advance width="560"/>
  <unicode hex="2260"/>
  <outline>
    <contour>
      <point x="91" y="0" type="line"/>
      <point x="132" y="0" type="line"/>
      <point x="332" y="493" type="line"/>
      <point x="291" y="493" type="line"/>
    </contour>
    <component base="equal" xOffset="3"/>
  </outline>
</glyph>
<glyph name="lessequal" format="2">
  <advance width="560"/>
  <unicode hex="2264"/>
  <outline>
    <contour>
      <point x="519" y="119" type="line"/>
      <point x="519" y="191" type="line"/>
      <point x="71" y="332" type="line"/>
      <point x="71" y="306" type="line"/>
      <point x="519" y="447" type="line"/>
      <point x="519" y="518" type="line"/>
      <point x="23" y="355" type="line"/>
      <point x="23" y="282" type="line"/>
    </contour>
    <contour>
      <point x="23" y="-30" type="line"/>
      <point x="519" y="-30" type="line"/>
      <point x="519" y="38" type="line"/>
      <point x="23" y="38" type="line"/>
    </contour>
  </outline>
</glyph>
<glyph name="lozenge" format="2">
  <advance width="575"/>
  <unicode hex="25CA"/>
  <outline>
    <contour>
      <point x="229" y="0" type="line"/>
      <point x="346" y="0" type="line"/>
      <point x="533" y="348" type="line"/>
      <point x="346" y="697" type="line"/>
      <point x="229" y="697" type="line"/>
      <point x="42" y="348" type="line"/>
    </contour>
    <contour>
      <point x="280" y="46" type="line"/>
      <point x="126" y="348" type="line"/>
      <point x="280" y="651" type="line"/>
      <point x="294" y="651" type="line"/>
      <point x="448" y="348" type="line"/>
      <point x="294" y="46" type="line"/>
    </contour>
  </outline>
</glyph>
<glyph name=".notdef" format="2">
  <advance width="509"/>
  <outline>
    <contour>
      <point x="50" y="0" type="line"/>
      <point x="459" y="0" type="line"/>
      <point x="459" y="474" type="line"/>
      <point x="50" y="474" type="line"/>
    </contour>
    <contour>
      <point x="81" y="32" type="line"/>
      <point x="81" y="442" type="line"/>
      <point x="428" y="442" type="line"/>
      <point x="428" y="32" type="line"/>
    </contour>
  </outline>
</glyph>
<glyph name="brevecomb_gravecomb.case" format="2">
  <advance width="402"/>
  <guideline x="390" y="847" angle="0" name=""/>
  <guideline x="428" y="784" angle="0" name=""/>
  <guideline x="340" y="981" angle="0" name=""/>
  <guideline x="256" y="1000" angle="0" name=""/>
  <anchor x="201" y="697" name="_top"/>
  <anchor x="201" y="1051" name="top"/>
  <outline>
    <contour>
      <point x="201" y="740" type="curve" smooth="yes"/>
      <point x="301" y="740"/>
      <point x="353" y="784"/>
      <point x="353" y="871" type="curve"/>
      <point x="298" y="871" type="line"/>
      <point x="298" y="819"/>
      <point x="262" y="791"/>
      <point x="201" y="791" type="curve" smooth="yes"/>
      <point x="141" y="791"/>
      <point x="104" y="818"/>
      <point x="104" y="871" type="curve"/>
      <point x="49" y="871" type="line"/>
      <point x="49" y="787"/>
      <point x="98" y="740"/>
    </contour>
    <contour>
      <point x="184" y="867" type="line"/>
      <point x="237" y="867" type="line"/>
      <point x="171" y="992" type="line"/>
      <point x="104" y="992" type="line"/>
    </contour>
  </outline>
</glyph>
<glyph name="brevecomb_tildecomb.case" format="2">
  <advance width="402"/>
  <guideline x="212" y="748" angle="0" name=""/>
  <anchor x="201" y="697" name="_top"/>
  <anchor x="202" y="999" name="top"/>
  <outline>
    <contour>
      <point x="201" y="740" type="curve" smooth="yes"/>
      <point x="301" y="740"/>
      <point x="353" y="784"/>
      <point x="353" y="871" type="curve"/>
      <point x="298" y="871" type="line"/>
      <point x="298" y="819"/>
      <point x="262" y="791"/>
      <point x="201" y="791" type="curve" smooth="yes"/>
      <point x="141" y="791"/>
      <point x="104" y="818"/>
      <point x="104" y="871" type="curve"/>
      <point x="49" y="871" type="line"/>
      <point x="49" y="787"/>
      <point x="98" y="740"/>
    </contour>
    <contour>
      <point x="263" y="891" type="curve" smooth="yes"/>
      <point x="318" y="891"/>
      <point x="348" y="923"/>
      <point x="353" y="973" type="curve"/>
      <point x="303" y="974" type="line"/>
      <point x="298" y="951"/>
      <point x="285" y="941"/>
      <point x="263" y="941" type="curve" smooth="yes"/>
      <point x="224" y="941"/>
      <point x="204" y="981"/>
      <point x="140" y="981" type="curve" smooth="yes"/>
      <point x="90" y="981"/>
      <point x="58" y="949"/>
      <point x="52" y="899" type="curve"/>
      <point x="99" y="898" type="line"/>
      <point x="105" y="920"/>
      <point x="118" y="935"/>
      <point x="140" y="935" type="curve" smooth="yes"/>
      <point x="180" y="935"/>
      <point x="197" y="891"/>
    </contour>
  </outline>
</glyph>
<glyph name="brevecomb_tildecomb" format="2">
  <advance width="402"/>
  <guideline x="341" y="784" angle="0" name=""/>
  <anchor x="201" y="493" name="_top"/>
  <anchor x="202" y="820" name="top"/>
  <outline>
    <contour>
      <point x="201" y="556" type="curve" smooth="yes"/>
      <point x="301" y="556"/>
      <point x="353" y="600"/>
      <point x="353" y="697" type="curve"/>
      <point x="298" y="697" type="line"/>
      <point x="298" y="634"/>
      <point x="263" y="606"/>
      <point x="201" y="606" type="curve" smooth="yes"/>
      <point x="141" y="606"/>
      <point x="104" y="633"/>
      <point x="104" y="697" type="curve"/>
      <point x="49" y="697" type="line"/>
      <point x="49" y="602"/>
      <point x="98" y="556"/>
    </contour>
    <contour>
      <point x="268" y="729" type="curve" smooth="yes"/>
      <point x="321" y="729"/>
      <point x="347" y="765"/>
      <point x="352" y="811" type="curve"/>
      <point x="303" y="812" type="line"/>
      <point x="297" y="789"/>
      <point x="284" y="779"/>
      <point x="263" y="779" type="curve" smooth="yes"/>
      <point x="223" y="779"/>
      <point x="204" y="820"/>
      <point x="139" y="820" type="curve" smooth="yes"/>
      <point x="92" y="820"/>
      <point x="58" y="790"/>
      <point x="52" y="738" type="curve"/>
      <point x="99" y="736" type="line"/>
      <point x="105" y="760"/>
      <point x="118" y="773"/>
      <point x="145" y="773" type="curve" smooth="yes"/>
      <point x="195" y="773"/>
      <point x="202" y="729"/>
    </contour>
  </outline>
</glyph>
<glyph name="circumflexcomb_acutecomb.case" format="2">
  <advance width="467"/>
  <guideline x="256" y="1000" angle="0" name=""/>
  <guideline x="212" y="748" angle="0" name=""/>
  <anchor x="200" y="697" name="_top"/>
  <anchor x="210" y="982" name="top"/>
  <outline>
    <contour>
      <point x="49" y="744" type="line"/>
      <point x="119" y="744" type="line"/>
      <point x="200" y="823" type="line"/>
      <point x="281" y="744" type="line"/>
      <point x="351" y="744" type="line"/>
      <point x="200" y="886" type="line"/>
    </contour>
    <contour>
      <point x="276" y="847" type="line"/>
      <point x="329" y="847" type="line"/>
      <point x="418" y="982" type="line"/>
      <point x="348" y="982" type="line"/>
    </contour>
  </outline>
</glyph>
<glyph name="circumflexcomb_hookabovecomb" format="2">
  <advance width="449"/>
  <guideline x="428" y="784" angle="0" name=""/>
  <anchor x="200" y="493" name="_top"/>
  <anchor x="211" y="856" name="top"/>
  <outline>
    <contour>
      <point x="49" y="547" type="line"/>
      <point x="120" y="547" type="line"/>
      <point x="200" y="625" type="line"/>
      <point x="281" y="547" type="line"/>
      <point x="351" y="547" type="line"/>
      <point x="200" y="699" type="line"/>
    </contour>
    <contour>
      <point x="293" y="634" type="line"/>
      <point x="349" y="643"/>
      <point x="400" y="658"/>
      <point x="400" y="716" type="curve" smooth="yes"/>
      <point x="400" y="772"/>
      <point x="350" y="804"/>
      <point x="267" y="804" type="curve" smooth="yes"/>
      <point x="252" y="804" type="line"/>
      <point x="252" y="758" type="line"/>
      <point x="267" y="758" type="line" smooth="yes"/>
      <point x="308" y="758"/>
      <point x="350" y="746"/>
      <point x="350" y="712" type="curve" smooth="yes"/>
      <point x="350" y="682"/>
      <point x="321" y="672"/>
      <point x="284" y="666" type="curve"/>
    </contour>
  </outline>
</glyph>
<glyph name="circumflexcomb_tildecomb.case" format="2">
  <advance width="400"/>
  <guideline x="340" y="784" angle="0" name=""/>
  <guideline x="211" y="748" angle="0" name=""/>
  <anchor x="200" y="697" name="_top"/>
  <anchor x="201" y="996" name="top"/>
  <outline>
    <contour>
      <point x="49" y="744" type="line"/>
      <point x="119" y="744" type="line"/>
      <point x="200" y="823" type="line"/>
      <point x="282" y="744" type="line"/>
      <point x="351" y="744" type="line"/>
      <point x="200" y="886" type="line"/>
    </contour>
    <contour>
      <point x="260" y="899" type="curve" smooth="yes"/>
      <point x="317" y="899"/>
      <point x="345" y="932"/>
      <point x="350" y="980" type="curve"/>
      <point x="300" y="982" type="line"/>
      <point x="295" y="958"/>
      <point x="283" y="949"/>
      <point x="260" y="949" type="curve" smooth="yes"/>
      <point x="221" y="949"/>
      <point x="202" y="990"/>
      <point x="138" y="990" type="curve" smooth="yes"/>
      <point x="89" y="990"/>
      <point x="56" y="959"/>
      <point x="50" y="908" type="curve"/>
      <point x="98" y="906" type="line"/>
      <point x="103" y="927"/>
      <point x="114" y="943"/>
      <point x="138" y="943" type="curve" smooth="yes"/>
      <point x="178" y="943"/>
      <point x="195" y="899"/>
    </contour>
  </outline>
</glyph>
<glyph name="colon.ss03" format="2">
  <advance width="240"/>
  <outline>
    <contour>
      <point x="120" y="351" type="curve" smooth="yes"/>
      <point x="150" y="351"/>
      <point x="175" y="376"/>
      <point x="175" y="406" type="curve" smooth="yes"/>
      <point x="175" y="437"/>
      <point x="150" y="460"/>
      <point x="120" y="460" type="curve" smooth="yes"/>
      <point x="90" y="460"/>
      <point x="66" y="437"/>
      <point x="66" y="406" type="curve" smooth="yes"/>
      <point x="66" y="376"/>
      <point x="90" y="351"/>
    </contour>
    <contour>
      <point x="120" y="-8" type="curve" smooth="yes"/>
      <point x="151" y="-8"/>
      <point x="175" y="17"/>
      <point x="175" y="47" type="curve" smooth="yes"/>
      <point x="175" y="78"/>
      <point x="150" y="101"/>
      <point x="120" y="101" type="curve" smooth="yes"/>
      <point x="90" y="101"/>
      <point x="66" y="78"/>
      <point x="66" y="47" type="curve" smooth="yes"/>
      <point x="66" y="17"/>
      <point x="91" y="-8"/>
    </contour>
  </outline>
</glyph>
<glyph name="dieresis.ss03" format="2">
  <advance width="408"/>
  <anchor x="204" y="493" name="_top"/>
  <anchor x="204" y="705" name="top"/>
  <outline>
    <contour>
      <point x="304" y="596" type="curve" smooth="yes"/>
      <point x="335" y="596"/>
      <point x="359" y="621"/>
      <point x="359" y="651" type="curve" smooth="yes"/>
      <point x="359" y="681"/>
      <point x="335" y="705"/>
      <point x="304" y="705" type="curve" smooth="yes"/>
      <point x="274" y="705"/>
      <point x="250" y="681"/>
      <point x="250" y="651" type="curve" smooth="yes"/>
      <point x="250" y="621"/>
      <point x="275" y="596"/>
    </contour>
    <contour>
      <point x="103" y="596" type="curve" smooth="yes"/>
      <point x="133" y="596"/>
      <point x="158" y="621"/>
      <point x="158" y="651" type="curve" smooth="yes"/>
      <point x="158" y="681"/>
      <point x="133" y="705"/>
      <point x="103" y="705" type="curve" smooth="yes"/>
      <point x="72" y="705"/>
      <point x="49" y="681"/>
      <point x="49" y="651" type="curve" smooth="yes"/>
      <point x="49" y="621"/>
      <point x="74" y="596"/>
    </contour>
  </outline>
</glyph>
<glyph name="dotaccentcomb.ss03" format="2">
  <advance width="207"/>
  <anchor x="103" y="493" name="_top"/>
  <anchor x="103" y="705" name="top"/>
  <outline>
    <contour>
      <point x="103" y="596" type="curve" smooth="yes"/>
      <point x="133" y="596"/>
      <point x="158" y="621"/>
      <point x="158" y="651" type="curve" smooth="yes"/>
      <point x="158" y="681"/>
      <point x="133" y="705"/>
      <point x="103" y="705" type="curve" smooth="yes"/>
      <point x="72" y="705"/>
      <point x="49" y="681"/>
      <point x="49" y="651" type="curve" smooth="yes"/>
      <point x="49" y="621"/>
      <point x="74" y="596"/>
    </contour>
  </outline>
</glyph>
<glyph name="ellipsis.ss03" format="2">
  <advance width="624"/>
  <outline>
    <contour>
      <point x="506" y="-8" type="curve" smooth="yes"/>
      <point x="536" y="-8"/>
      <point x="560" y="17"/>
      <point x="560" y="47" type="curve" smooth="yes"/>
      <point x="560" y="77"/>
      <point x="535" y="101"/>
      <point x="506" y="101" type="curve" smooth="yes"/>
      <point x="475" y="101"/>
      <point x="451" y="76"/>
      <point x="451" y="47" type="curve" smooth="yes"/>
      <point x="451" y="17"/>
      <point x="476" y="-8"/>
    </contour>
    <contour>
      <point x="121" y="-8" type="curve" smooth="yes"/>
      <point x="152" y="-8"/>
      <point x="175" y="17"/>
      <point x="175" y="47" type="curve" smooth="yes"/>
      <point x="175" y="77"/>
      <point x="151" y="101"/>
      <point x="121" y="101" type="curve" smooth="yes"/>
      <point x="91" y="101"/>
      <point x="67" y="77"/>
      <point x="67" y="47" type="curve" smooth="yes"/>
      <point x="67" y="17"/>
      <point x="92" y="-8"/>
    </contour>
    <contour>
      <point x="313" y="-8" type="curve" smooth="yes"/>
      <point x="344" y="-8"/>
      <point x="367" y="17"/>
      <point x="367" y="47" type="curve" smooth="yes"/>
      <point x="367" y="77"/>
      <point x="344" y="101"/>
      <point x="313" y="101" type="curve" smooth="yes"/>
      <point x="283" y="101"/>
      <point x="260" y="77"/>
      <point x="260" y="47" type="curve" smooth="yes"/>
      <point x="260" y="17"/>
      <point x="284" y="-8"/>
    </contour>
  </outline>
</glyph>
<glyph name="exclam.ss03" format="2">
  <advance width="219"/>
  <outline>
    <contour>
      <point x="76" y="202" type="line"/>
      <point x="142" y="202" type="line"/>
      <point x="152" y="697" type="line"/>
      <point x="68" y="697" type="line"/>
    </contour>
    <contour>
      <point x="109" y="-8" type="curve" smooth="yes"/>
      <point x="140" y="-8"/>
      <point x="164" y="17"/>
      <point x="164" y="48" type="curve" smooth="yes"/>
      <point x="164" y="78"/>
      <point x="140" y="101"/>
      <point x="109" y="101" type="curve" smooth="yes"/>
      <point x="78" y="101"/>
      <point x="55" y="78"/>
      <point x="55" y="48" type="curve" smooth="yes"/>
      <point x="55" y="17"/>
      <point x="80" y="-8"/>
    </contour>
  </outline>
</glyph>
<glyph name="exclamdown.ss03" format="2">
  <advance width="218"/>
  <outline>
    <contour>
      <point x="67" y="-204" type="line"/>
      <point x="151" y="-204" type="line"/>
      <point x="142" y="292" type="line"/>
      <point x="77" y="292" type="line"/>
    </contour>
    <contour>
      <point x="110" y="392" type="curve" smooth="yes"/>
      <point x="140" y="392"/>
      <point x="164" y="416"/>
      <point x="164" y="447" type="curve" smooth="yes"/>
      <point x="164" y="477"/>
      <point x="139" y="501"/>
      <point x="110" y="501" type="curve" smooth="yes"/>
      <point x="79" y="501"/>
      <point x="55" y="476"/>
      <point x="55" y="447" type="curve" smooth="yes"/>
      <point x="55" y="416"/>
      <point x="80" y="392"/>
    </contour>
  </outline>
</glyph>
<glyph name="f_f_i" format="2">
  <advance width="784"/>
  <anchor x="274" y="0" name="caret_1"/>
  <anchor x="545" y="0" name="caret_2"/>
  <outline>
    <contour>
      <point x="96" y="0" type="line"/>
      <point x="180" y="0" type="line"/>
      <point x="180" y="427" type="line"/>
      <point x="366" y="427" type="line"/>
      <point x="366" y="0" type="line"/>
      <point x="450" y="0" type="line"/>
      <point x="450" y="427" type="line"/>
      <point x="636" y="427" type="line"/>
      <point x="636" y="0" type="line"/>
      <point x="721" y="0" type="line"/>
      <point x="721" y="493" type="line"/>
      <point x="450" y="493" type="line"/>
      <point x="450" y="531" type="line" smooth="yes"/>
      <point x="450" y="602"/>
      <point x="486" y="636"/>
      <point x="555" y="636" type="curve" smooth="yes"/>
      <point x="602" y="636"/>
      <point x="643" y="622"/>
      <point x="675" y="598" type="curve"/>
      <point x="715" y="658" type="line"/>
      <point x="669" y="688"/>
      <point x="621" y="705"/>
      <point x="551" y="705" type="curve" smooth="yes"/>
      <point x="505" y="705"/>
      <point x="460" y="693"/>
      <point x="425" y="666" type="curve"/>
      <point x="384" y="694"/>
      <point x="335" y="705"/>
      <point x="290" y="705" type="curve" smooth="yes"/>
      <point x="183" y="705"/>
      <point x="96" y="641"/>
      <point x="96" y="535" type="curve" smooth="yes"/>
      <point x="96" y="493" type="line"/>
      <point x="10" y="493" type="line"/>
      <point x="10" y="427" type="line"/>
      <point x="96" y="427" type="line"/>
    </contour>
    <contour>
      <point x="180" y="493" type="line"/>
      <point x="180" y="533" type="line" smooth="yes"/>
      <point x="180" y="595"/>
      <point x="220" y="636"/>
      <point x="294" y="636" type="curve" smooth="yes"/>
      <point x="329" y="636"/>
      <point x="359" y="628"/>
      <point x="384" y="612" type="curve"/>
      <point x="373" y="599"/>
      <point x="366" y="563"/>
      <point x="366" y="532" type="curve" smooth="yes"/>
      <point x="366" y="493" type="line"/>
    </contour>
  </outline>
</glyph>
<glyph name="five.dnom" format="2">
  <advance width="365"/>
  <outline>
    <contour>
      <point x="181" y="-5" type="curve" smooth="yes"/>
      <point x="268" y="-5"/>
      <point x="330" y="65"/>
      <point x="330" y="144" type="curve" smooth="yes"/>
      <point x="330" y="220"/>
      <point x="273" y="285"/>
      <point x="192" y="285" type="curve" smooth="yes"/>
      <point x="161" y="285"/>
      <point x="124" y="274"/>
      <point x="93" y="237" type="curve"/>
      <point x="111" y="233" type="line"/>
      <point x="139" y="388" type="line"/>
      <point x="108" y="364" type="line"/>
      <point x="312" y="364" type="line"/>
      <point x="312" y="418" type="line"/>
      <point x="86" y="418" type="line"/>
      <point x="47" y="201" type="line"/>
      <point x="103" y="185" type="line"/>
      <point x="121" y="213"/>
      <point x="149" y="230"/>
      <point x="183" y="230" type="curve" smooth="yes"/>
      <point x="239" y="230"/>
      <point x="269" y="191"/>
      <point x="269" y="144" type="curve" smooth="yes"/>
      <point x="269" y="96"/>
      <point x="238" y="51"/>
      <point x="181" y="51" type="curve" smooth="yes"/>
      <point x="129" y="51"/>
      <point x="98" y="87"/>
      <point x="92" y="129" type="curve"/>
      <point x="34" y="118" type="line"/>
      <point x="46" y="47"/>
      <point x="106" y="-5"/>
    </contour>
  </outline>
</glyph>
<glyph name="four.lf" format="2">
  <advance width="622"/>
  <outline>
    <contour>
      <point x="377" y="0" type="line"/>
      <point x="462" y="0" type="line"/>
      <point x="462" y="166" type="line"/>
      <point x="574" y="166" type="line"/>
      <point x="574" y="245" type="line"/>
      <point x="462" y="245" type="line"/>
      <point x="462" y="697" type="line"/>
      <point x="384" y="697" type="line"/>
      <point x="45" y="233" type="line"/>
      <point x="45" y="166" type="line"/>
      <point x="377" y="166" type="line"/>
    </contour>
    <contour>
      <point x="116" y="215" type="line"/>
      <point x="387" y="595" type="line"/>
      <point x="377" y="602" type="line"/>
      <point x="377" y="245" type="line"/>
      <point x="109" y="245" type="line"/>
    </contour>
  </outline>
</glyph>
<glyph name="four.numr" format="2">
  <advance width="372"/>
  <outline>
    <contour>
      <point x="219" y="279" type="line"/>
      <point x="278" y="279" type="line"/>
      <point x="278" y="378" type="line"/>
      <point x="345" y="378" type="line"/>
      <point x="345" y="433" type="line"/>
      <point x="278" y="433" type="line"/>
      <point x="278" y="697" type="line"/>
      <point x="225" y="697" type="line"/>
      <point x="25" y="424" type="line"/>
      <point x="25" y="378" type="line"/>
      <point x="219" y="378" type="line"/>
    </contour>
    <contour>
      <point x="75" y="412" type="line"/>
      <point x="226" y="626" type="line"/>
      <point x="219" y="631" type="line"/>
      <point x="219" y="433" type="line"/>
      <point x="69" y="433" type="line"/>
    </contour>
  </outline>
</glyph>
<glyph name="nine.dnom" format="2">
  <advance width="357"/>
  <outline>
    <contour>
      <point x="111" y="0" type="line"/>
      <point x="178" y="0" type="line"/>
      <point x="304" y="205" type="line" smooth="yes"/>
      <point x="318" y="228"/>
      <point x="326" y="255"/>
      <point x="326" y="282" type="curve" smooth="yes"/>
      <point x="326" y="363"/>
      <point x="259" y="423"/>
      <point x="178" y="423" type="curve" smooth="yes"/>
      <point x="97" y="423"/>
      <point x="30" y="363"/>
      <point x="30" y="281" type="curve" smooth="yes"/>
      <point x="30" y="204"/>
      <point x="91" y="142"/>
      <point x="170" y="142" type="curve" smooth="yes"/>
      <point x="187" y="142"/>
      <point x="207" y="147"/>
      <point x="224" y="157" type="curve"/>
      <point x="217" y="167" type="line"/>
    </contour>
    <contour>
      <point x="178" y="194" type="curve" smooth="yes"/>
      <point x="129" y="194"/>
      <point x="90" y="230"/>
      <point x="90" y="281" type="curve" smooth="yes"/>
      <point x="90" y="332"/>
      <point x="130" y="368"/>
      <point x="178" y="368" type="curve" smooth="yes"/>
      <point x="226" y="368"/>
      <point x="266" y="332"/>
      <point x="266" y="281" type="curve" smooth="yes"/>
      <point x="266" y="230"/>
      <point x="226" y="194"/>
    </contour>
  </outline>
</glyph>
<glyph name="nine.lf" format="2">
  <advance width="594"/>
  <outline>
    <contour>
      <point x="195" y="0" type="line"/>
      <point x="292" y="0" type="line"/>
      <point x="501" y="345" type="line" smooth="yes"/>
      <point x="524" y="383"/>
      <point x="539" y="427"/>
      <point x="539" y="472" type="curve" smooth="yes"/>
      <point x="539" y="605"/>
      <point x="429" y="705"/>
      <point x="296" y="705" type="curve" smooth="yes"/>
      <point x="163" y="705"/>
      <point x="54" y="605"/>
      <point x="54" y="471" type="curve" smooth="yes"/>
      <point x="54" y="343"/>
      <point x="155" y="241"/>
      <point x="285" y="241" type="curve" smooth="yes"/>
      <point x="318" y="241"/>
      <point x="353" y="252"/>
      <point x="383" y="272" type="curve"/>
      <point x="373" y="285" type="line"/>
    </contour>
    <contour>
      <point x="296" y="316" type="curve" smooth="yes"/>
      <point x="209" y="316"/>
      <point x="140" y="382"/>
      <point x="140" y="470" type="curve" smooth="yes"/>
      <point x="140" y="560"/>
      <point x="210" y="625"/>
      <point x="296" y="625" type="curve" smooth="yes"/>
      <point x="382" y="625"/>
      <point x="452" y="560"/>
      <point x="452" y="471" type="curve" smooth="yes"/>
      <point x="452" y="381"/>
      <point x="381" y="316"/>
    </contour>
  </outline>
</glyph>
<glyph name="one.numr" format="2">
  <advance width="289"/>
  <outline>
    <contour>
      <point x="130" y="279" type="line"/>
      <point x="189" y="279" type="line"/>
      <point x="189" y="697" type="line"/>
      <point x="130" y="697" type="line"/>
      <point x="22" y="631" type="line"/>
      <point x="22" y="573" type="line"/>
      <point x="130" y="635" type="line"/>
    </contour>
  </outline>
</glyph>
<glyph name="questiondown.ss03" format="2">
  <advance width="452"/>
  <outline>
    <contour>
      <point x="225" y="-212" type="curve" smooth="yes"/>
      <point x="352" y="-212"/>
      <point x="439" y="-137"/>
      <point x="440" y="-10" type="curve"/>
      <point x="365" y="-10" type="line"/>
      <point x="365" y="-93"/>
      <point x="315" y="-141"/>
      <point x="226" y="-141" type="curve" smooth="yes"/>
      <point x="141" y="-141"/>
      <point x="92" y="-103"/>
      <point x="92" y="-32" type="curve" smooth="yes"/>
      <point x="92" y="94"/>
      <point x="265" y="77"/>
      <point x="265" y="236" type="curve" smooth="yes"/>
      <point x="265" y="294" type="line"/>
      <point x="192" y="294" type="line"/>
      <point x="192" y="242" type="line" smooth="yes"/>
      <point x="192" y="119"/>
      <point x="18" y="143"/>
      <point x="18" y="-31" type="curve" smooth="yes"/>
      <point x="18" y="-155"/>
      <point x="107" y="-212"/>
    </contour>
    <contour>
      <point x="227" y="392" type="curve" smooth="yes"/>
      <point x="256" y="392"/>
      <point x="281" y="416"/>
      <point x="281" y="447" type="curve" smooth="yes"/>
      <point x="281" y="477"/>
      <point x="256" y="501"/>
      <point x="227" y="501" type="curve" smooth="yes"/>
      <point x="197" y="501"/>
      <point x="172" y="477"/>
      <point x="172" y="447" type="curve" smooth="yes"/>
      <point x="172" y="416"/>
      <point x="197" y="392"/>
    </contour>
  </outline>
</glyph>
<glyph name="seven.lf" format="2">
  <advance width="579"/>
  <outline>
    <contour>
      <point x="114" y="0" type="line"/>
      <point x="208" y="0" type="line"/>
      <point x="538" y="632" type="line"/>
      <point x="538" y="697" type="line"/>
      <point x="38" y="697" type="line"/>
      <point x="38" y="618" type="line"/>
      <point x="477" y="618" type="line"/>
      <point x="454" y="648" type="line"/>
    </contour>
  </outline>
</glyph>
<glyph name="seven.numr" format="2">
  <advance width="345"/>
  <outline>
    <contour>
      <point x="64" y="279" type="line"/>
      <point x="129" y="279" type="line"/>
      <point x="323" y="653" type="line"/>
      <point x="323" y="697" type="line"/>
      <point x="22" y="697" type="line"/>
      <point x="22" y="643" type="line"/>
      <point x="280" y="643" type="line"/>
      <point x="264" y="664" type="line"/>
    </contour>
  </outline>
</glyph>
<glyph name="slashlongcomb.case" format="2">
  <advance width="655"/>
  <anchor x="328" y="349" name="_center"/>
  <outline>
    <contour>
      <point x="49" y="0" type="line"/>
      <point x="109" y="0" type="line"/>
      <point x="606" y="697" type="line"/>
      <point x="547" y="697" type="line"/>
    </contour>
  </outline>
</glyph>
<glyph name="three.dnom" format="2">
  <advance width="370"/>
  <outline>
    <contour>
      <point x="184" y="-5" type="curve" smooth="yes"/>
      <point x="273" y="-5"/>
      <point x="334" y="48"/>
      <point x="334" y="125" type="curve" smooth="yes"/>
      <point x="334" y="182"/>
      <point x="294" y="214"/>
      <point x="247" y="227" type="curve"/>
      <point x="285" y="240"/>
      <point x="312" y="269"/>
      <point x="312" y="312" type="curve" smooth="yes"/>
      <point x="312" y="377"/>
      <point x="258" y="423"/>
      <point x="185" y="423" type="curve" smooth="yes"/>
      <point x="107" y="423"/>
      <point x="51" y="373"/>
      <point x="51" y="303" type="curve"/>
      <point x="109" y="300" type="line"/>
      <point x="110" y="339"/>
      <point x="136" y="367"/>
      <point x="183" y="367" type="curve" smooth="yes"/>
      <point x="225" y="367"/>
      <point x="253" y="343"/>
      <point x="253" y="306" type="curve" smooth="yes"/>
      <point x="253" y="258"/>
      <point x="209" y="242"/>
      <point x="161" y="243" type="curve"/>
      <point x="161" y="196" type="line"/>
      <point x="227" y="196"/>
      <point x="276" y="179"/>
      <point x="276" y="126" type="curve" smooth="yes"/>
      <point x="276" y="80"/>
      <point x="242" y="51"/>
      <point x="185" y="51" type="curve" smooth="yes"/>
      <point x="129" y="51"/>
      <point x="91" y="82"/>
      <point x="91" y="132" type="curve"/>
      <point x="32" y="129" type="line"/>
      <point x="32" y="49"/>
      <point x="93" y="-5"/>
    </contour>
  </outline>
</glyph>
<glyph name="tildecomb.case" format="2">
  <advance width="420"/>
  <guideline x="357" y="871" angle="0" name=""/>
  <guideline x="235" y="761" angle="0" name=""/>
  <anchor x="211" y="697" name="_top"/>
  <anchor x="211" y="891" name="top"/>
  <outline>
    <contour>
      <point x="277" y="743" type="curve" smooth="yes"/>
      <point x="334" y="743"/>
      <point x="371" y="791"/>
      <point x="371" y="871" type="curve"/>
      <point x="319" y="871" type="line"/>
      <point x="319" y="822"/>
      <point x="301" y="790"/>
      <point x="278" y="790" type="curve" smooth="yes"/>
      <point x="228" y="790"/>
      <point x="219" y="875"/>
      <point x="146" y="875" type="curve" smooth="yes"/>
      <point x="86" y="875"/>
      <point x="49" y="829"/>
      <point x="49" y="751" type="curve"/>
      <point x="99" y="751" type="line"/>
      <point x="99" y="799"/>
      <point x="116" y="827"/>
      <point x="142" y="827" type="curve" smooth="yes"/>
      <point x="192" y="827"/>
      <point x="196" y="743"/>
    </contour>
  </outline>
</glyph>
<glyph name="two.numr" format="2">
  <advance width="349"/>
  <outline>
    <contour>
      <point x="34" y="279" type="line"/>
      <point x="316" y="279" type="line"/>
      <point x="316" y="333" type="line"/>
      <point x="96" y="333" type="line"/>
      <point x="81" y="311" type="line"/>
      <point x="194" y="372"/>
      <point x="300" y="462"/>
      <point x="300" y="572" type="curve" smooth="yes"/>
      <point x="300" y="650"/>
      <point x="247" y="701"/>
      <point x="172" y="701" type="curve" smooth="yes"/>
      <point x="82" y="701"/>
      <point x="33" y="631"/>
      <point x="33" y="554" type="curve"/>
      <point x="90" y="549" type="line"/>
      <point x="92" y="601"/>
      <point x="116" y="644"/>
      <point x="170" y="644" type="curve" smooth="yes"/>
      <point x="217" y="644"/>
      <point x="241" y="614"/>
      <point x="241" y="570" type="curve" smooth="yes"/>
      <point x="241" y="467"/>
      <point x="103" y="378"/>
      <point x="34" y="326" type="curve"/>
    </contour>
  </outline>
</glyph>
<glyph name="zero.lf" format="2">
  <advance width="591"/>
  <outline>
    <contour>
      <point x="297" y="-8" type="curve" smooth="yes"/>
      <point x="481" y="-8"/>
      <point x="522" y="178"/>
      <point x="522" y="350" type="curve" smooth="yes"/>
      <point x="522" y="519"/>
      <point x="481" y="706"/>
      <point x="295" y="706" type="curve" smooth="yes"/>
      <point x="101" y="706"/>
      <point x="69" y="508"/>
      <point x="69" y="351" type="curve" smooth="yes"/>
      <point x="69" y="190"/>
      <point x="103" y="-8"/>
    </contour>
    <contour>
      <point x="297" y="74" type="curve" smooth="yes"/>
      <point x="183" y="74"/>
      <point x="155" y="204"/>
      <point x="155" y="348" type="curve" smooth="yes"/>
      <point x="155" y="498"/>
      <point x="183" y="625"/>
      <point x="295" y="625" type="curve" smooth="yes"/>
      <point x="400" y="625"/>
      <point x="436" y="508"/>
      <point x="436" y="347" type="curve" smooth="yes"/>
      <point x="436" y="193"/>
      <point x="401" y="74"/>
    </contour>
  </outline>
</glyph>
<glyph name="zero.numr" format="2">
  <advance width="356"/>
  <outline>
    <contour>
      <point x="179" y="274" type="curve" smooth="yes"/>
      <point x="296" y="274"/>
      <point x="317" y="391"/>
      <point x="317" y="489" type="curve" smooth="yes"/>
      <point x="317" y="586"/>
      <point x="296" y="702"/>
      <point x="178" y="702" type="curve" smooth="yes"/>
      <point x="57" y="702"/>
      <point x="39" y="580"/>
      <point x="39" y="489" type="curve" smooth="yes"/>
      <point x="39" y="396"/>
      <point x="58" y="274"/>
    </contour>
    <contour>
      <point x="179" y="330" type="curve" smooth="yes"/>
      <point x="114" y="330"/>
      <point x="99" y="405"/>
      <point x="99" y="488" type="curve" smooth="yes"/>
      <point x="99" y="574"/>
      <point x="114" y="647"/>
      <point x="178" y="647" type="curve" smooth="yes"/>
      <point x="239" y="647"/>
      <point x="258" y="579"/>
      <point x="258" y="487" type="curve" smooth="yes"/>
      <point x="258" y="400"/>
      <point x="240" y="330"/>
    </contour>
  </outline>
</glyph>
